<?xml version="1.0" encoding="utf-8"?>
<!-- Generator: Adobe Illustrator 22.1.0, SVG Export Plug-In . SVG Version: 6.00 Build 0)  -->
<svg version="1.1" id="Слой_1" xmlns="http://www.w3.org/2000/svg" xmlns:xlink="http://www.w3.org/1999/xlink" x="0px" y="0px"
	 viewBox="0 0 80 80" style="enable-background:new 0 0 80 80;" xml:space="preserve">
<style type="text/css">
	.st0{opacity:0.25;}
	.st1{fill:#16AFE0;}
</style>
<g class="st0">
	<path class="st1" d="M40,1c21.5,0,39,17.5,39,39S61.5,79,40,79S1,61.5,1,40S18.5,1,40,1 M40,0C17.9,0,0,17.9,0,40s17.9,40,40,40
		s40-17.9,40-40S62.1,0,40,0L40,0z"/>
</g>
<g>
	<g>
		<g>
			<path class="st1" d="M48.7,31.3c-0.2-0.2-0.6-0.2-0.9,0c-0.2,0.2-0.2,0.6,0,0.9c0.2,0.2,0.6,0.2,0.9,0C49,31.9,49,31.5,48.7,31.3
				z"/>
		</g>
	</g>
	<g>
		<g>
			<path class="st1" d="M32.2,47.8c-0.2-0.2-0.6-0.2-0.9,0c-0.2,0.2-0.2,0.6,0,0.9c0.2,0.2,0.6,0.2,0.9,0
				C32.4,48.5,32.4,48.1,32.2,47.8z"/>
		</g>
	</g>
	<g>
		<g>
			<path class="st1" d="M55.1,33.8l-8.8-8.8c-1.2-1.2-3.2-1.2-4.4,0L24.9,41.8c-1.2,1.2-1.2,3.2,0,4.4l8.8,8.8c0,0,0,0,0,0
				c1.2,1.2,3.2,1.2,4.4,0l16.9-16.9C56.3,37,56.3,35,55.1,33.8z M54.2,37.3L37.3,54.2c-0.7,0.7-1.9,0.7-2.7,0c0,0,0,0,0,0l-8.8-8.8
				c-0.7-0.7-0.7-1.9,0-2.7l16.9-16.9c0.7-0.7,1.9-0.7,2.7,0l8.8,8.8C54.9,35.4,54.9,36.6,54.2,37.3z"/>
		</g>
	</g>
	<g>
		<g>
			<path class="st1" d="M51.8,34.4c-1-1-2.6-1-3.5,0c-1,1-1,2.6,0,3.5c1,1,2.6,1,3.5,0v0C52.8,36.9,52.8,35.4,51.8,34.4z M50.9,37
				c-0.5,0.5-1.3,0.5-1.8,0c-0.5-0.5-0.5-1.3,0-1.8c0.5-0.5,1.3-0.5,1.8,0C51.4,35.8,51.4,36.5,50.9,37z"/>
		</g>
	</g>
	<g>
		<g>
			<path class="st1" d="M47.2,39c-1-1-2.6-1-3.5,0c-1,1-1,2.6,0,3.5c1,1,2.6,1,3.5,0c0,0,0,0,0,0C48.2,41.6,48.2,40,47.2,39z
				 M46.3,41.6c-0.5,0.5-1.3,0.5-1.8,0c-0.5-0.5-0.5-1.3,0-1.8c0.5-0.5,1.3-0.5,1.8,0C46.8,40.4,46.8,41.2,46.3,41.6z"/>
		</g>
	</g>
	<g>
		<g>
			<path class="st1" d="M42.5,43.7c-1-1-2.6-1-3.5,0c-1,1-1,2.6,0,3.5c1,1,2.6,1,3.5,0c0,0,0,0,0,0C43.5,46.2,43.5,44.6,42.5,43.7z
				 M41.6,46.3c-0.5,0.5-1.3,0.5-1.8,0c-0.5-0.5-0.5-1.3,0-1.8c0.5-0.5,1.3-0.5,1.8,0C42.1,45,42.1,45.8,41.6,46.3z"/>
		</g>
	</g>
	<g>
		<g>
			<path class="st1" d="M37.9,48.3c-1-1-2.6-1-3.5,0c-1,1-1,2.6,0,3.5c1,1,2.6,1,3.5,0c0,0,0,0,0,0C38.9,50.8,38.9,49.2,37.9,48.3z
				 M37,50.9c-0.5,0.5-1.3,0.5-1.8,0c-0.5-0.5-0.5-1.3,0-1.8c0.5-0.5,1.3-0.5,1.8,0C37.5,49.6,37.5,50.4,37,50.9z"/>
		</g>
	</g>
	<g>
		<g>
			<path class="st1" d="M45.6,28.2c-1-1-2.6-1-3.5,0c-1,1-1,2.6,0,3.5c1,1,2.6,1,3.5,0C46.6,30.8,46.6,29.2,45.6,28.2z M44.7,30.8
				C44.7,30.8,44.7,30.8,44.7,30.8c-0.5,0.5-1.3,0.5-1.8,0c-0.5-0.5-0.5-1.3,0-1.8c0.5-0.5,1.3-0.5,1.8,0
				C45.2,29.6,45.2,30.4,44.7,30.8z"/>
		</g>
	</g>
	<g>
		<g>
			<path class="st1" d="M41,32.8c-1-1-2.6-1-3.5,0c-1,1-1,2.6,0,3.5c1,1,2.6,1,3.5,0C42,35.4,42,33.8,41,32.8z M40.1,35.5
				C40.1,35.5,40.1,35.5,40.1,35.5c-0.5,0.5-1.3,0.5-1.8,0c-0.5-0.5-0.5-1.3,0-1.8c0.5-0.5,1.3-0.5,1.8,0
				C40.6,34.2,40.6,35,40.1,35.5z"/>
		</g>
	</g>
	<g>
		<g>
			<path class="st1" d="M36.3,37.5c-1-1-2.6-1-3.5,0c-1,1-1,2.6,0,3.5c1,1,2.6,1,3.5,0C37.3,40,37.3,38.5,36.3,37.5z M35.5,40.1
				C35.5,40.1,35.5,40.1,35.5,40.1c-0.5,0.5-1.3,0.5-1.8,0c-0.5-0.5-0.5-1.3,0-1.8c0.5-0.5,1.3-0.5,1.8,0
				C35.9,38.8,35.9,39.6,35.5,40.1z"/>
		</g>
	</g>
	<g>
		<g>
			<path class="st1" d="M31.7,42.1c-1-1-2.6-1-3.5,0c-1,1-1,2.6,0,3.5c1,1,2.6,1,3.5,0C32.7,44.6,32.7,43.1,31.7,42.1z M30.8,44.7
				C30.8,44.7,30.8,44.7,30.8,44.7c-0.5,0.5-1.3,0.5-1.8,0c-0.5-0.5-0.5-1.3,0-1.8c0.5-0.5,1.3-0.5,1.8,0
				C31.3,43.5,31.3,44.2,30.8,44.7z"/>
		</g>
	</g>
	<g>
		<g>
			<path class="st1" d="M46.9,33.1c-0.2-0.2-0.6-0.2-0.9,0l-13,13c-0.2,0.2-0.2,0.6,0,0.9c0.2,0.2,0.6,0.2,0.9,0l13-13
				C47.2,33.7,47.2,33.3,46.9,33.1z"/>
		</g>
	</g>
</g>
</svg>
