<?xml version="1.0" encoding="utf-8"?>
<!-- Generator: Adobe Illustrator 22.1.0, SVG Export Plug-In . SVG Version: 6.00 Build 0)  -->
<svg version="1.1" id="Слой_1" xmlns="http://www.w3.org/2000/svg" xmlns:xlink="http://www.w3.org/1999/xlink" x="0px" y="0px"
	 viewBox="0 0 80 80" style="enable-background:new 0 0 80 80;" xml:space="preserve">
<style type="text/css">
	.st0{opacity:0.25;}
	.st1{fill:#16AFE0;}
</style>
<g class="st0">
	<path class="st1" d="M40,1c21.5,0,39,17.5,39,39S61.5,79,40,79S1,61.5,1,40S18.5,1,40,1 M40,0C17.9,0,0,17.9,0,40s17.9,40,40,40
		s40-17.9,40-40S62.1,0,40,0L40,0z"/>
</g>
<g>
	<g>
		<g>
			<path class="st1" d="M44.8,40c-0.4,0-0.7,0.3-0.7,0.7s0.3,0.7,0.7,0.7s0.7-0.3,0.7-0.7S45.2,40,44.8,40z"/>
		</g>
	</g>
	<g>
		<g>
			<path class="st1" d="M50.9,50.9h-0.8l-2.2-12.5c-0.4-2.3-2.4-3.9-4.7-3.9h-6.4c-2.3,0-4.3,1.7-4.7,3.9l-2.2,12.5h-0.8
				c-1.1,0-2.1,0.9-2.1,2.1v2.7c0,0.4,0.3,0.7,0.7,0.7h24.6c0.4,0,0.7-0.3,0.7-0.7V53C53,51.9,52.1,50.9,50.9,50.9z M33.5,38.7
				c0.3-1.6,1.7-2.8,3.4-2.8h6.4c1.7,0,3.1,1.2,3.4,2.8l2.2,12.2H31.3L33.5,38.7z M51.6,55H28.4V53c0-0.4,0.3-0.7,0.7-0.7
				c1.5,0,20.9,0,21.9,0c0.4,0,0.7,0.3,0.7,0.7V55z"/>
		</g>
	</g>
	<g>
		<g>
			<path class="st1" d="M47,48.8l-1-5.5c-0.1-0.4-0.4-0.6-0.8-0.6c-0.4,0.1-0.6,0.4-0.6,0.8l1,5.5c0.1,0.4,0.4,0.6,0.8,0.6
				C46.8,49.5,47.1,49.1,47,48.8z"/>
		</g>
	</g>
	<g>
		<g>
			<path class="st1" d="M56.8,40h-5.9c-0.4,0-0.7,0.3-0.7,0.7s0.3,0.7,0.7,0.7h5.9c0.4,0,0.7-0.3,0.7-0.7S57.2,40,56.8,40z"/>
		</g>
	</g>
	<g>
		<g>
			<path class="st1" d="M29.1,40h-5.9c-0.4,0-0.7,0.3-0.7,0.7s0.3,0.7,0.7,0.7h5.9c0.4,0,0.7-0.3,0.7-0.7S29.4,40,29.1,40z"/>
		</g>
	</g>
	<g>
		<g>
			<path class="st1" d="M52.1,28.6c-0.3-0.3-0.7-0.3-1,0l-3.9,3.9c-0.3,0.3-0.3,0.7,0,1c0.3,0.3,0.7,0.3,1,0l3.9-3.9
				C52.4,29.3,52.4,28.9,52.1,28.6z"/>
		</g>
	</g>
	<g>
		<g>
			<path class="st1" d="M32.7,32.5l-3.9-3.9c-0.3-0.3-0.7-0.3-1,0c-0.3,0.3-0.3,0.7,0,1l3.9,3.9c0.3,0.3,0.7,0.3,1,0
				C33,33.2,33,32.7,32.7,32.5z"/>
		</g>
	</g>
	<g>
		<g>
			<path class="st1" d="M40,23.6c-0.4,0-0.7,0.3-0.7,0.7v5.5c0,0.4,0.3,0.7,0.7,0.7s0.7-0.3,0.7-0.7v-5.5
				C40.7,23.9,40.4,23.6,40,23.6z"/>
		</g>
	</g>
</g>
</svg>
