<?xml version="1.0" encoding="utf-8"?>
<!-- Generator: Adobe Illustrator 22.1.0, SVG Export Plug-In . SVG Version: 6.00 Build 0)  -->
<svg version="1.1" id="Слой_1" xmlns="http://www.w3.org/2000/svg" xmlns:xlink="http://www.w3.org/1999/xlink" x="0px" y="0px"
	 viewBox="0 0 80 80" style="enable-background:new 0 0 80 80;" xml:space="preserve">
<style type="text/css">
	.st0{opacity:0.25;}
	.st1{fill:#16AFE0;}
</style>
<g class="st0">
	<path class="st1" d="M40,1c21.5,0,39,17.5,39,39S61.5,79,40,79S1,61.5,1,40S18.5,1,40,1 M40,0C17.9,0,0,17.9,0,40s17.9,40,40,40
		s40-17.9,40-40S62.1,0,40,0L40,0z"/>
</g>
<g>
	<g>
		<g>
			<path class="st1" d="M51.8,27.8c-0.4,0-0.7,0.3-0.7,0.7s0.3,0.7,0.7,0.7s0.7-0.3,0.7-0.7C52.6,28.1,52.2,27.8,51.8,27.8z"/>
		</g>
	</g>
	<g>
		<g>
			<path class="st1" d="M55.5,27c-1.7-1.9-4-2.9-6.6-2.9c-2.8,0-5.3,1.1-7.4,3.1c-0.7,0.7-1.2,1.4-1.6,2c-0.4-0.6-0.9-1.3-1.6-2
				c-2-2-4.6-3.1-7.4-3.1c-5.3,0-9.1,4.5-9.1,9.8c0,7.2,7.6,13.2,17.5,21.8c0.1,0.1,0.3,0.2,0.5,0.2s0.3-0.1,0.5-0.2
				C50.4,47.1,58,41,58,33.9C58,31.3,57.1,28.9,55.5,27z M40,54.2c-9.4-8.1-16.6-14-16.6-20.4c0-4.8,3.3-8.4,7.6-8.4
				c2.4,0,4.5,0.9,6.3,2.7c1.4,1.4,2,2.7,2,2.7c0.1,0.3,0.4,0.4,0.6,0.4c0,0,0,0,0,0c0.3,0,0.5-0.2,0.6-0.4c0,0,0.6-1.4,2-2.7
				c1.8-1.8,3.9-2.7,6.3-2.7c4.4,0,7.6,3.6,7.6,8.4C56.6,40.4,48.9,46.5,40,54.2z"/>
		</g>
	</g>
	<g>
		<g>
			<path class="st1" d="M54.3,30.3c-0.2-0.3-0.6-0.5-0.9-0.3c-0.3,0.2-0.5,0.6-0.3,0.9c0.5,0.9,0.7,1.9,0.7,3c0,2-1,4.2-3,6.8
				c-0.2,0.3-0.2,0.7,0.1,1c0.3,0.2,0.7,0.2,1-0.1c2.3-2.9,3.4-5.3,3.4-7.7C55.2,32.6,54.9,31.4,54.3,30.3z"/>
		</g>
	</g>
	<g>
		<g>
			<path class="st1" d="M46.8,37.6h-3.9v-3.9c0-0.4-0.3-0.7-0.7-0.7h-4.2c-0.4,0-0.7,0.3-0.7,0.7v3.9h-3.9c-0.4,0-0.7,0.3-0.7,0.7
				v4.2c0,0.4,0.3,0.7,0.7,0.7h3.9v3.9c0,0.4,0.3,0.7,0.7,0.7h4.2c0.4,0,0.7-0.3,0.7-0.7v-3.9h3.9c0.4,0,0.7-0.3,0.7-0.7v-4.2
				C47.5,37.9,47.1,37.6,46.8,37.6z M46,41.8h-3.9c-0.4,0-0.7,0.3-0.7,0.7v3.9h-2.8v-3.9c0-0.4-0.3-0.7-0.7-0.7H34V39h3.9
				c0.4,0,0.7-0.3,0.7-0.7v-3.9h2.8v3.9c0,0.4,0.3,0.7,0.7,0.7H46V41.8z"/>
		</g>
	</g>
</g>
</svg>
