<?xml version="1.0" encoding="utf-8"?>
<!-- Generator: Adobe Illustrator 22.1.0, SVG Export Plug-In . SVG Version: 6.00 Build 0)  -->
<svg version="1.1" id="Слой_1" xmlns="http://www.w3.org/2000/svg" xmlns:xlink="http://www.w3.org/1999/xlink" x="0px" y="0px"
	 viewBox="0 0 160 17" style="enable-background:new 0 0 160 17;" xml:space="preserve">
<style type="text/css">
	.st0{fill:#FFFFFF;}
</style>
<g>
	<path class="st0" d="M35.5,2.3c0.6,0,1-0.5,1-1s-0.5-1-1-1h0c-0.6,0-1,0.5-1,1S34.9,2.3,35.5,2.3z"/>
	<path class="st0" d="M39,2.3c0.6,0,1-0.5,1-1s-0.5-1-1-1h0c-0.6,0-1,0.5-1,1S38.4,2.3,39,2.3z"/>
	<path class="st0" d="M76.5,14.7h-0.9V6.6C75.5,5.2,74.4,4,73,4h-3c-2.9,0-5.2,2.3-5.2,5.2v5.5h-0.9c-0.6,0-1,0.5-1,1
		c0,0.6,0.5,1,1,1h12.7c0.6,0,1-0.5,1-1C77.5,15.2,77,14.7,76.5,14.7z M66.8,9.2c0-1.7,1.4-3.1,3.1-3.1h3c0.3,0,0.5,0.2,0.5,0.5v8.1
		h-6.7V9.2z"/>
	<path class="st0" d="M61.3,7.7c0-2-1.7-3.7-3.7-3.7h-4.3c-0.6,0-1,0.5-1,1c0,0.6,0.5,1,1,1h4.3c0.9,0,1.6,0.7,1.6,1.6
		s-0.7,1.6-1.6,1.6h-2.1c-0.6,0-1,0.5-1,1c0,0.6,0.5,1,1,1h2.1c0.9,0,1.6,0.7,1.6,1.6c0,0.9-0.7,1.6-1.6,1.6h-4.3c-0.6,0-1,0.5-1,1
		c0,0.6,0.5,1,1,1h4.3c2,0,3.7-1.7,3.7-3.7c0-1-0.4-2-1.1-2.7C60.9,9.7,61.3,8.8,61.3,7.7z"/>
	<path class="st0" d="M25.7,4h-5c-1.8,0-3.3,1.5-3.3,3.3v3.5c0,3.2,2.6,5.9,5.9,5.9c3.2,0,5.9-2.6,5.9-5.9V7.4
		C29.1,5.5,27.6,4,25.7,4z M27,10.9c0,2.1-1.7,3.8-3.8,3.8h0c-2.1,0-3.8-1.7-3.8-3.8V7.4c0-0.7,0.6-1.3,1.3-1.3h5
		c0.7,0,1.3,0.6,1.3,1.3V10.9z"/>
	<path class="st0" d="M11.7,4c-0.1,0-0.1,0-0.2,0c-1.6,0-3.1,0.9-4,2.1C6.6,4.9,5.1,4.1,3.5,4C3.5,4,3.4,4,3.3,4C1.1,4,0,5.8,0,7.6
		v8.2c0,0.6,0.5,1,1,1c0.6,0,1-0.5,1-1V7.6c0-0.2,0-1.5,1.3-1.5c0,0,0.1,0,0.1,0c1.6,0,3,1.4,3,3.1c0,0,0,0,0,0.1c0,0,0,0,0,0v1.1
		c0,0.6,0.5,1,1,1c0.6,0,1-0.5,1-1V9.2c0,0,0,0,0-0.1c0-1.7,1.4-3,3-3.1c0,0,0.1,0,0.1,0c1.2,0,1.3,1.3,1.3,1.5v8.2c0,0.6,0.5,1,1,1
		c0.6,0,1-0.5,1-1V7.6C15,5.8,13.9,4,11.7,4z"/>
	<path class="st0" d="M87.3,4h-5c-1.8,0-3.3,1.5-3.3,3.3v3.5c0,3.2,2.6,5.9,5.9,5.9c3.2,0,5.9-2.6,5.9-5.9V7.4
		C90.6,5.5,89.1,4,87.3,4z M88.6,10.9c0,2.1-1.7,3.8-3.8,3.8c-2.1,0-3.8-1.7-3.8-3.8V7.4c0-0.7,0.6-1.3,1.3-1.3h5
		c0.7,0,1.3,0.6,1.3,1.3V10.9z"/>
	<path class="st0" d="M115.2,4h-5c-1.8,0-3.3,1.5-3.3,3.3v3.5c0,3.2,2.6,5.9,5.9,5.9c3.2,0,5.9-2.6,5.9-5.9V7.4
		C118.5,5.5,117,4,115.2,4z M116.4,10.9c0,2.1-1.7,3.8-3.8,3.8c-2.1,0-3.8-1.7-3.8-3.8V7.4c0-0.7,0.6-1.3,1.3-1.3h5
		c0.7,0,1.3,0.6,1.3,1.3V10.9z"/>
	<path class="st0" d="M24.5,9.5h-0.6V8.9c0-0.4-0.3-0.7-0.7-0.7s-0.7,0.3-0.7,0.7v0.6h-0.6c-0.4,0-0.7,0.3-0.7,0.7
		c0,0.4,0.3,0.7,0.7,0.7h0.6v0.6c0,0.4,0.3,0.7,0.7,0.7s0.7-0.3,0.7-0.7V11h0.6c0.4,0,0.7-0.3,0.7-0.7C25.2,9.9,24.9,9.5,24.5,9.5z"
		/>
	<path class="st0" d="M34.4,12.4h3.4c2.9,0,5.3-2.4,5.3-5.3c0-1.7-1.4-3.1-3.1-3.1h-5.6c-1.7,0-3.1,1.4-3.1,3.1v2.3v2.9
		c0,2.5,2,4.5,4.5,4.5h4.9c0.6,0,1-0.5,1-1c0-0.6-0.5-1-1-1h-4.9c-1.3,0-2.4-1.1-2.4-2.4v0C33.8,12.4,34.1,12.4,34.4,12.4z
		 M34.4,6.1h5.6c0.6,0,1,0.4,1,1c0,1.8-1.5,3.3-3.3,3.3h-3.4c-0.6,0-1-0.4-1-1V7.1C33.4,6.5,33.9,6.1,34.4,6.1z"/>
	<path class="st0" d="M157.6,14.6h-4.9c-1.3,0-2.4-1.1-2.4-2.4v0c0.3,0.1,0.7,0.2,1,0.2h3.4c2.9,0,5.3-2.4,5.3-5.3
		c0-1.7-1.4-3.1-3.1-3.1h-5.6c-1.7,0-3.1,1.4-3.1,3.1v2.3v2.9c0,2.5,2,4.5,4.5,4.5h4.9c0.6,0,1-0.5,1-1
		C158.6,15.1,158.2,14.6,157.6,14.6z M151.3,6h5.6c0.6,0,1,0.4,1,1c0,1.8-1.5,3.3-3.3,3.3h-3.4c-0.6,0-1-0.4-1-1V7
		C150.3,6.5,150.8,6,151.3,6z"/>
	<path class="st0" d="M101.7,4h-5.6C94.4,4,93,5.4,93,7.1v2.3v6.4c0,0.6,0.5,1,1,1c0.6,0,1-0.5,1-1v-3.5c0.3,0.1,0.7,0.2,1,0.2h3.4
		c2.9,0,5.3-2.4,5.3-5.3C104.8,5.4,103.4,4,101.7,4z M99.4,10.4h-3.4c-0.6,0-1-0.4-1-1V7.1c0-0.6,0.4-1,1-1h5.6c0.6,0,1,0.4,1,1
		C102.7,8.9,101.2,10.4,99.4,10.4z"/>
	<path class="st0" d="M141.3,8.4h-3.4c-0.4,0-0.7,0.1-1,0.2V5.1c0-0.6-0.5-1-1-1s-1,0.5-1,1v6.4v2.3c0,1.7,1.4,3.1,3.1,3.1h5.6
		c1.7,0,3.1-1.4,3.1-3.1C146.6,10.8,144.2,8.4,141.3,8.4z M143.5,14.7h-5.6c-0.6,0-1-0.4-1-1v-2.3c0-0.6,0.4-1,1-1h3.4
		c1.8,0,3.3,1.5,3.3,3.3C144.5,14.3,144.1,14.7,143.5,14.7z"/>
	<path class="st0" d="M128.8,4h-5c-1.7,0-3.1,1.4-3.1,3.1v6.6c0,1.7,1.4,3.1,3.1,3.1h5c2,0,3.7-1.7,3.7-3.7c0-1-0.4-2-1.1-2.7
		c0.7-0.7,1.1-1.6,1.1-2.7C132.5,5.7,130.8,4,128.8,4z M128.8,14.7h-5c-0.6,0-1-0.4-1-1v-2.3c0.1,0,0.2,0.1,0.3,0.1h5.7
		c0.9,0,1.6,0.7,1.6,1.6C130.4,14,129.7,14.7,128.8,14.7z M128.8,9.4h-5.7c-0.1,0-0.2,0-0.3,0.1V7.1c0-0.6,0.4-1,1-1h5
		c0.9,0,1.6,0.7,1.6,1.6S129.7,9.4,128.8,9.4z"/>
</g>
</svg>
