<?xml version="1.0" encoding="utf-8"?>
<!-- Generator: Adobe Illustrator 22.1.0, SVG Export Plug-In . SVG Version: 6.00 Build 0)  -->
<svg version="1.1" id="Слой_1" xmlns="http://www.w3.org/2000/svg" xmlns:xlink="http://www.w3.org/1999/xlink" x="0px" y="0px"
	 viewBox="0 0 200 40" style="enable-background:new 0 0 200 40;" xml:space="preserve">
<style type="text/css">
	.st0{fill:#FFFFFF;}
</style>
<g>
	<g>
		<path class="st0" d="M44.4,2.6c0.7,0,1.3-0.6,1.3-1.3S45.1,0,44.4,0l0,0c-0.7,0-1.3,0.6-1.3,1.3S43.7,2.6,44.4,2.6z"/>
		<path class="st0" d="M48.7,2.6c0.8,0,1.3-0.5,1.3-1.2s-0.6-1.3-1.3-1.3l0,0c-0.7,0-1.3,0.6-1.3,1.3S48,2.6,48.7,2.6z"/>
		<path class="st0" d="M95.6,18.1h-1.2V8c0-1.8-1.4-3.2-3.2-3.2h-3.8c-3.6,0-6.5,2.9-6.5,6.5v6.9h-1.2c-0.7,0-1.3,0.6-1.3,1.3
			c0,0.7,0.6,1.3,1.3,1.3h15.8c0.7,0,1.3-0.6,1.3-1.3C96.9,18.7,96.3,18.1,95.6,18.1z M83.5,11.3c0-2.1,1.7-3.9,3.9-3.9h3.8
			c0.4,0,0.7,0.3,0.7,0.7v10.1h-8.3L83.5,11.3L83.5,11.3z"/>
		<path class="st0" d="M76.7,9.4c0-2.5-2.1-4.6-4.6-4.6h-5.4c-0.7,0-1.3,0.6-1.3,1.3c0,0.7,0.6,1.3,1.3,1.3H72c1.1,0,2,0.9,2,2
			s-0.9,2-2,2h-2.6c-0.7,0-1.3,0.6-1.3,1.3s0.6,1.3,1.3,1.3H72c1.1,0,2,0.9,2,2s-0.9,2-2,2h-5.4c-0.7,0-1.3,0.6-1.3,1.3
			c0,0.7,0.6,1.3,1.3,1.3H72c2.5,0,4.6-2.1,4.6-4.6c0-1.3-0.6-2.5-1.4-3.3C76.1,11.9,76.7,10.7,76.7,9.4z"/>
		<path class="st0" d="M32.1,4.8h-6.3c-2.3,0-4.2,1.9-4.2,4.2v4.4c0,4,3.3,7.3,7.3,7.3s7.3-3.3,7.3-7.3V9
			C36.3,6.7,34.4,4.8,32.1,4.8z M33.7,13.4c0,2.6-2.1,4.8-4.8,4.8l0,0c-2.6,0-4.8-2.1-4.8-4.8V9c0-0.9,0.7-1.6,1.6-1.6H32
			c0.9,0,1.6,0.7,1.6,1.6L33.7,13.4L33.7,13.4z"/>
		<path class="st0" d="M14.6,4.8c-0.1,0-0.1,0-0.2,0c-2,0-3.8,1.1-5,2.6c-1.1-1.5-3-2.6-5-2.6c-0.1,0-0.1,0-0.2,0C1.4,4.8,0,7,0,9.2
			v10.2c0,0.7,0.6,1.3,1.3,1.3s1.3-0.6,1.3-1.3V9.2c0-0.2,0-1.8,1.6-1.8c0.1,0,0.1,0,0.2,0c2.1,0,3.7,1.8,3.8,3.8v0.1c0,0,0,0,0,0.1
			v1.4c0,0.7,0.6,1.3,1.3,1.3s1.3-0.6,1.3-1.3v-1.5v-0.1c0-2.1,1.7-3.8,3.8-3.8c0.1,0,0.1,0,0.2,0c1.6,0,1.6,1.6,1.6,1.8v10.2
			c0,0.7,0.6,1.3,1.3,1.3c0.7,0,1.3-0.6,1.3-1.3V9.2C18.8,7,17.4,4.8,14.6,4.8z"/>
		<path class="st0" d="M109.1,4.8h-6.3c-2.3,0-4.2,1.9-4.2,4.2v4.4c0,4,3.3,7.3,7.3,7.3s7.3-3.3,7.3-7.3V9
			C113.3,6.7,111.4,4.8,109.1,4.8z M110.7,13.4c0,2.6-2.1,4.8-4.8,4.8c-2.6,0-4.8-2.1-4.8-4.8V9c0-0.9,0.7-1.6,1.6-1.6h6.3
			c0.9,0,1.6,0.7,1.6,1.6L110.7,13.4L110.7,13.4z"/>
		<path class="st0" d="M143.9,4.8h-6.3c-2.3,0-4.2,1.9-4.2,4.2v4.4c0,4,3.3,7.3,7.3,7.3c4,0,7.3-3.3,7.3-7.3V9
			C148.1,6.7,146.2,4.8,143.9,4.8z M145.6,13.4c0,2.6-2.1,4.8-4.8,4.8c-2.6,0-4.8-2.1-4.8-4.8V9c0-0.9,0.7-1.6,1.6-1.6h6.3
			c0.9,0,1.6,0.7,1.6,1.6L145.6,13.4L145.6,13.4z"/>
		<path class="st0" d="M30.7,11.7h-0.8v-0.8c0-0.5-0.4-0.9-0.9-0.9c-0.5,0-0.9,0.4-0.9,0.9v0.8h-0.8c-0.5,0-0.9,0.4-0.9,0.9
			s0.4,0.9,0.9,0.9h0.8v0.8c0,0.5,0.4,0.9,0.9,0.9c0.5,0,0.9-0.4,0.9-0.9v-0.8h0.8c0.5,0,0.9-0.4,0.9-0.9S31.2,11.7,30.7,11.7z"/>
		<path class="st0" d="M43,15.3h4.2c3.7,0,6.7-3,6.7-6.7c0-2.1-1.7-3.8-3.8-3.8h-7c-2.1,0-3.8,1.7-3.8,3.8v2.8V15
			c0,3.1,2.5,5.6,5.6,5.6H51c0.7,0,1.3-0.6,1.3-1.3c0-0.7-0.6-1.3-1.3-1.3h-6.1c-1.7,0-3-1.4-3-3l0,0C42.2,15.2,42.6,15.3,43,15.3z
			 M43,7.4h7c0.7,0,1.3,0.6,1.3,1.3c0,2.3-1.8,4.1-4.1,4.1H43c-0.7,0-1.3-0.6-1.3-1.3V8.6C41.8,7.9,42.4,7.4,43,7.4z"/>
		<path class="st0" d="M197,18.1h-6.1c-1.7,0-3-1.4-3-3l0,0c0.4,0.1,0.8,0.2,1.3,0.2h4.2c3.7,0,6.7-3,6.7-6.7c0-2.1-1.7-3.8-3.8-3.8
			h-7c-2.1,0-3.8,1.7-3.8,3.8v2.8V15c0,3.1,2.5,5.6,5.6,5.6h6.1c0.7,0,1.3-0.6,1.3-1.3C198.3,18.6,197.7,18.1,197,18.1z M189.2,7.3
			h7c0.7,0,1.3,0.6,1.3,1.3c0,2.3-1.8,4.1-4.1,4.1h-4.2c-0.7,0-1.3-0.6-1.3-1.3V8.5C187.9,7.9,188.5,7.3,189.2,7.3z"/>
		<path class="st0" d="M127.1,4.8h-7c-2.1,0-3.8,1.7-3.8,3.8v2.8v8c0,0.7,0.6,1.3,1.3,1.3c0.7,0,1.3-0.6,1.3-1.3V15
			c0.4,0.1,0.8,0.2,1.3,0.2h4.2c3.7,0,6.7-3,6.7-6.7C131,6.5,129.2,4.8,127.1,4.8z M124.3,12.7h-4.2c-0.7,0-1.3-0.6-1.3-1.3V8.6
			c0-0.7,0.6-1.3,1.3-1.3h7c0.7,0,1.3,0.6,1.3,1.3C128.4,10.9,126.6,12.7,124.3,12.7z"/>
		<path class="st0" d="M176.6,10.2h-4.2c-0.4,0-0.9,0.1-1.3,0.2V6.1c0-0.7-0.6-1.3-1.3-1.3c-0.7,0-1.3,0.6-1.3,1.3v8v2.8
			c0,2.1,1.7,3.8,3.8,3.8h7c2.1,0,3.8-1.7,3.8-3.8C183.3,13.2,180.3,10.2,176.6,10.2z M179.4,18.1h-7c-0.7,0-1.3-0.6-1.3-1.3V14
			c0-0.7,0.6-1.3,1.3-1.3h4.2c2.3,0,4.1,1.8,4.1,4.1C180.7,17.6,180.1,18.1,179.4,18.1z"/>
		<path class="st0" d="M161,4.8h-6.2c-2.1,0-3.8,1.7-3.8,3.8v8.3c0,2.1,1.7,3.8,3.8,3.8h6.2c2.5,0,4.6-2.1,4.6-4.6
			c0-1.3-0.5-2.5-1.4-3.3c0.9-0.8,1.4-2,1.4-3.3C165.6,6.9,163.6,4.8,161,4.8z M161,18.1h-6.2c-0.7,0-1.3-0.6-1.3-1.3v-2.9
			c0.1,0,0.3,0.1,0.4,0.1h7.1c1.1,0,2,0.9,2,2C163.1,17.2,162.1,18.1,161,18.1z M161,11.5h-7.1c-0.1,0-0.3,0-0.4,0.1v-3
			c0-0.7,0.6-1.3,1.3-1.3h6.2c1.1,0,2,0.9,2,2S162.1,11.5,161,11.5z"/>
	</g>
	<g>
		<path class="st0" d="M0.2,37.1v-7.6c0-0.3,0.2-0.5,0.5-0.5h5.4c0.3,0,0.5,0.2,0.5,0.5v7.6c0,0.3-0.2,0.5-0.5,0.5
			c-0.3,0-0.5-0.2-0.5-0.5v-7.3H1.2v7.3c0,0.3-0.2,0.5-0.5,0.5C0.4,37.7,0.2,37.4,0.2,37.1z"/>
		<path class="st0" d="M15.4,34.4c0,1.9-1.3,3.3-3.1,3.3c-1,0-1.8-0.4-2.3-1.1v2.9c0,0.3-0.2,0.5-0.5,0.5c-0.3,0-0.5-0.2-0.5-0.5
			v-7.9c0-0.3,0.2-0.5,0.5-0.5c0.3,0,0.5,0.2,0.5,0.5v0.6c0.5-0.6,1.3-1.1,2.3-1.1C14,31.1,15.4,32.5,15.4,34.4z M14.4,34.4
			c0-1.4-0.9-2.4-2.2-2.4c-1.3,0-2.2,1-2.2,2.4c0,1.4,0.9,2.4,2.2,2.4C13.4,36.8,14.4,35.7,14.4,34.4z"/>
		<path class="st0" d="M23.3,34.4c0,1.8-1.5,3.3-3.3,3.3c-1.8,0-3.3-1.5-3.3-3.3c0-1.9,1.5-3.3,3.3-3.3
			C21.8,31.1,23.3,32.5,23.3,34.4z M17.7,34.4c0,1.3,1,2.4,2.3,2.4c1.3,0,2.3-1,2.3-2.4c0-1.4-1-2.4-2.3-2.4
			C18.7,32,17.7,33,17.7,34.4z"/>
		<path class="st0" d="M25.1,37.2v-5.4c0-0.3,0.2-0.5,0.5-0.5h3.5c0.3,0,0.5,0.2,0.5,0.4c0,0.3-0.2,0.5-0.5,0.5h-3v5
			c0,0.3-0.2,0.5-0.5,0.5C25.3,37.7,25.1,37.4,25.1,37.2z"/>
		<path class="st0" d="M37.3,34.4c0,1.9-1.3,3.3-3.1,3.3c-1,0-1.8-0.4-2.3-1.1v2.9c0,0.3-0.2,0.5-0.5,0.5c-0.3,0-0.5-0.2-0.5-0.5
			v-7.9c0-0.3,0.2-0.5,0.5-0.5c0.3,0,0.5,0.2,0.5,0.5v0.6c0.5-0.6,1.3-1.1,2.3-1.1C35.9,31.1,37.3,32.5,37.3,34.4z M36.2,34.4
			c0-1.4-0.9-2.4-2.2-2.4c-1.3,0-2.2,1-2.2,2.4c0,1.4,0.9,2.4,2.2,2.4C35.3,36.8,36.2,35.7,36.2,34.4z"/>
		<path class="st0" d="M43.7,33.6v3.5c0,0.3-0.2,0.5-0.5,0.5c-0.3,0-0.5-0.2-0.5-0.5v-0.4c-0.5,0.6-1.2,0.9-2.1,0.9
			c-1.3,0-2.2-0.7-2.2-1.8s0.9-1.8,2.3-1.8h2v-0.5c0-1-0.6-1.6-1.5-1.6c-0.6,0-1.1,0.2-1.6,0.7c-0.1,0.1-0.3,0.2-0.4,0.2
			c-0.2,0-0.5-0.2-0.5-0.4c0-0.1,0.1-0.3,0.2-0.4c0.5-0.6,1.4-1,2.3-1C42.8,31.1,43.7,32,43.7,33.6z M42.7,35.1V35h-1.9
			c-0.9,0-1.4,0.3-1.4,0.9s0.5,1,1.3,1C41.9,36.8,42.7,36.1,42.7,35.1z"/>
		<path class="st0" d="M45.9,37.2v-5.6c0-0.3,0.2-0.5,0.5-0.5c0.2,0,0.3,0.1,0.4,0.2l2.4,3.3l2.4-3.3c0.1-0.1,0.2-0.2,0.4-0.2
			c0.3,0,0.5,0.2,0.5,0.5v5.6c0,0.3-0.2,0.5-0.5,0.5c-0.3,0-0.5-0.2-0.5-0.5v-4.1l-2,2.5c-0.1,0.1-0.2,0.2-0.4,0.2s-0.3-0.1-0.4-0.2
			l-2-2.5v4.1c0,0.3-0.2,0.5-0.5,0.5C46.1,37.7,45.9,37.4,45.9,37.2z"/>
		<path class="st0" d="M55,37.2v-5.6c0-0.3,0.2-0.5,0.5-0.5c0.2,0,0.3,0.1,0.4,0.2l2.4,3.3l2.4-3.3c0.1-0.1,0.2-0.2,0.4-0.2
			c0.3,0,0.5,0.2,0.5,0.5v5.6c0,0.3-0.2,0.5-0.5,0.5c-0.3,0-0.5-0.2-0.5-0.5v-4.1l-2,2.5c-0.1,0.1-0.2,0.2-0.4,0.2s-0.3-0.1-0.4-0.2
			l-2-2.5v4.1c0,0.3-0.2,0.5-0.5,0.5C55.2,37.7,55,37.4,55,37.2z"/>
		<path class="st0" d="M68.6,33.6v3.5c0,0.3-0.2,0.5-0.5,0.5c-0.3,0-0.5-0.2-0.5-0.5v-0.4c-0.5,0.6-1.2,0.9-2.1,0.9
			c-1.3,0-2.2-0.7-2.2-1.8s0.9-1.8,2.3-1.8h2v-0.5c0-1-0.6-1.6-1.5-1.6c-0.6,0-1.1,0.2-1.6,0.7c-0.1,0.1-0.3,0.2-0.4,0.2
			c-0.2,0-0.5-0.2-0.5-0.4c0-0.1,0.1-0.3,0.2-0.4c0.5-0.6,1.4-1,2.3-1C67.7,31.1,68.6,32,68.6,33.6z M67.7,35.1V35h-1.9
			c-0.9,0-1.4,0.3-1.4,0.9s0.5,1,1.3,1C66.8,36.8,67.7,36.1,67.7,35.1z"/>
		<path class="st0" d="M80.8,37.2V39c0,0.3-0.2,0.5-0.5,0.5c-0.3,0-0.5-0.2-0.5-0.5v-1.5h-5V39c0,0.3-0.2,0.5-0.5,0.5
			c-0.3,0-0.5-0.2-0.5-0.5v-1.8c0-0.3,0.2-0.5,0.5-0.5h0.1c0.9-0.9,1.2-2.3,1.2-4.9v0c0-0.3,0.2-0.5,0.5-0.5h3
			c0.3,0,0.5,0.2,0.5,0.5v4.9h0.5C80.6,36.7,80.8,36.9,80.8,37.2z M75.6,36.7h3.1v-4.5h-2.1C76.7,34.5,76.4,35.8,75.6,36.7z"/>
		<path class="st0" d="M88.4,34.4c0,1.8-1.5,3.3-3.3,3.3c-1.8,0-3.3-1.5-3.3-3.3c0-1.9,1.5-3.3,3.3-3.3C87,31.1,88.4,32.5,88.4,34.4
			z M82.9,34.4c0,1.3,1,2.4,2.3,2.4c1.3,0,2.3-1,2.3-2.4c0-1.4-1-2.4-2.3-2.4C83.8,32,82.9,33,82.9,34.4z"/>
		<path class="st0" d="M89.7,34.4c0-1.8,1.5-3.3,3.3-3.3c1.1,0,2,0.5,2.6,1.3c0.1,0.1,0.1,0.2,0.1,0.3c0,0.2-0.2,0.5-0.5,0.5
			c-0.1,0-0.2,0-0.4-0.2c-0.4-0.5-1-0.9-1.8-0.9c-1.3,0-2.3,1-2.3,2.4c0,1.4,1,2.4,2.3,2.4c0.8,0,1.4-0.4,1.8-0.9
			c0.1-0.1,0.2-0.2,0.4-0.2c0.3,0,0.5,0.2,0.5,0.5c0,0.1,0,0.2-0.1,0.3c-0.5,0.8-1.4,1.3-2.6,1.3C91.2,37.7,89.7,36.2,89.7,34.4z"/>
		<path class="st0" d="M98.7,37.2v-5h-1.8c-0.3,0-0.5-0.2-0.5-0.5c0-0.2,0.2-0.4,0.5-0.4h4.7c0.3,0,0.5,0.2,0.5,0.4
			c0,0.3-0.2,0.5-0.5,0.5h-1.8v5c0,0.3-0.2,0.5-0.5,0.5S98.7,37.4,98.7,37.2z"/>
		<path class="st0" d="M108.9,31.6c0,0.1,0,0.2,0,0.2l-3,6.4c-0.6,1.2-1.3,1.8-2.3,1.8c-0.2,0-0.3,0-0.5,0c-0.2,0-0.4-0.2-0.4-0.4
			c0-0.2,0.2-0.4,0.5-0.4c0.1,0,0.3,0,0.4,0c0.6,0,1.1-0.3,1.4-1.1l0.3-0.7l-2.5-5.5c0-0.1-0.1-0.1-0.1-0.2c0-0.3,0.2-0.5,0.5-0.5
			c0.2,0,0.4,0.1,0.5,0.3l2.1,4.7l2.2-4.7c0.1-0.2,0.3-0.3,0.5-0.3C108.7,31.1,108.9,31.3,108.9,31.6z"/>
		<path class="st0" d="M110.5,37.2v-5.5c0-0.3,0.2-0.5,0.5-0.5h4.2c0.3,0,0.5,0.2,0.5,0.5v5.5c0,0.3-0.2,0.5-0.5,0.5
			c-0.3,0-0.5-0.2-0.5-0.5v-5.1h-3.1v5.1c0,0.3-0.2,0.5-0.5,0.5S110.5,37.5,110.5,37.2z"/>
		<path class="st0" d="M123.2,31.6v5.6c0,0.3-0.2,0.5-0.5,0.5c-0.3,0-0.5-0.2-0.5-0.5v-2.6h-3.2v2.6c0,0.3-0.2,0.5-0.5,0.5
			c-0.3,0-0.5-0.2-0.5-0.5v-5.6c0-0.3,0.2-0.5,0.5-0.5c0.3,0,0.5,0.2,0.5,0.5v2.2h3.2v-2.2c0-0.3,0.2-0.5,0.5-0.5
			C122.9,31.1,123.2,31.3,123.2,31.6z"/>
		<path class="st0" d="M131.6,34.4c0,1.8-1.5,3.3-3.3,3.3c-1.8,0-3.3-1.5-3.3-3.3c0-1.9,1.5-3.3,3.3-3.3
			C130.1,31.1,131.6,32.5,131.6,34.4z M126,34.4c0,1.3,1,2.4,2.3,2.4c1.3,0,2.3-1,2.3-2.4c0-1.4-1-2.4-2.3-2.4
			C127,32,126,33,126,34.4z"/>
		<path class="st0" d="M133.4,37.2v-5.4c0-0.3,0.2-0.5,0.5-0.5h3.5c0.3,0,0.5,0.2,0.5,0.4c0,0.3-0.2,0.5-0.5,0.5h-3v5
			c0,0.3-0.2,0.5-0.5,0.5C133.6,37.7,133.4,37.4,133.4,37.2z"/>
		<path class="st0" d="M145.1,34.4c0,1.8-1.5,3.3-3.3,3.3c-1.8,0-3.3-1.5-3.3-3.3c0-1.9,1.5-3.3,3.3-3.3
			C143.6,31.1,145.1,32.5,145.1,34.4z M139.5,34.4c0,1.3,1,2.4,2.3,2.4c1.3,0,2.3-1,2.3-2.4c0-1.4-1-2.4-2.3-2.4
			C140.5,32,139.5,33,139.5,34.4z"/>
		<path class="st0" d="M155.4,31.7v5.4c0,0.3-0.2,0.5-0.5,0.5c-0.3,0-0.5-0.2-0.5-0.5v-5h-2.2v0.6c0,2.6-0.6,4.2-1.9,4.7
			c-0.2,0.1-0.3,0.1-0.4,0.1c-0.3,0-0.5-0.2-0.5-0.5c0-0.2,0.1-0.4,0.4-0.4c1-0.4,1.5-1.7,1.5-4.5v-0.5c0-0.3,0.2-0.5,0.5-0.5h3.2
			C155.2,31.2,155.4,31.5,155.4,31.7z"/>
		<path class="st0" d="M163.3,34L163.3,34c0,0.5-0.2,0.7-0.6,0.7h-4.5c0.1,1.2,1,2.1,2.3,2.1c0.6,0,1.2-0.2,1.6-0.6
			c0.1-0.1,0.2-0.1,0.3-0.1c0.2,0,0.4,0.2,0.4,0.4c0,0.2-0.1,0.3-0.2,0.5c-0.6,0.5-1.4,0.8-2.2,0.8c-1.9,0-3.3-1.4-3.3-3.3
			c0-1.9,1.4-3.3,3.2-3.3C162.1,31.1,163.3,32.3,163.3,34z M158.3,33.8h4c0-1.1-0.8-1.8-1.9-1.8C159.3,32,158.5,32.7,158.3,33.8z"/>
		<path class="st0" d="M169.9,31.6v5.6c0,0.3-0.2,0.5-0.5,0.5c-0.3,0-0.5-0.2-0.5-0.5v-2c-0.5,0.2-1,0.3-1.5,0.3
			c-1.7,0-2.8-1.1-2.8-2.8v-1c0-0.3,0.2-0.5,0.5-0.5c0.3,0,0.5,0.2,0.5,0.5v0.9c0,1.3,0.6,1.9,1.9,1.9c0.5,0,1-0.1,1.4-0.3v-2.6
			c0-0.3,0.2-0.5,0.5-0.5C169.6,31.1,169.9,31.3,169.9,31.6z"/>
		<path class="st0" d="M177.8,34L177.8,34c0,0.5-0.2,0.7-0.6,0.7h-4.5c0.1,1.2,1,2.1,2.3,2.1c0.6,0,1.2-0.2,1.6-0.6
			c0.1-0.1,0.2-0.1,0.3-0.1c0.2,0,0.4,0.2,0.4,0.4c0,0.2-0.1,0.3-0.2,0.5c-0.6,0.5-1.4,0.8-2.2,0.8c-1.9,0-3.3-1.4-3.3-3.3
			c0-1.9,1.4-3.3,3.2-3.3C176.6,31.1,177.8,32.3,177.8,34z M172.7,33.8h4c0-1.1-0.8-1.8-1.9-1.8C173.8,32,173,32.7,172.7,33.8z"/>
		<path class="st0" d="M184.8,31.6v5.6c0,0.3-0.2,0.5-0.5,0.5c-0.3,0-0.5-0.2-0.5-0.5v-2.6h-3.2v2.6c0,0.3-0.2,0.5-0.5,0.5
			c-0.3,0-0.5-0.2-0.5-0.5v-5.6c0-0.3,0.2-0.5,0.5-0.5c0.3,0,0.5,0.2,0.5,0.5v2.2h3.2v-2.2c0-0.3,0.2-0.5,0.5-0.5
			C184.6,31.1,184.8,31.3,184.8,31.6z"/>
		<path class="st0" d="M192.5,31.6v5.6c0,0.3-0.2,0.5-0.5,0.5c-0.3,0-0.5-0.2-0.5-0.5v-4.2l-3.4,4.5c-0.2,0.2-0.3,0.3-0.5,0.3
			c-0.3,0-0.5-0.2-0.5-0.5v-5.6c0-0.3,0.2-0.5,0.5-0.5c0.3,0,0.5,0.2,0.5,0.5v4.3l3.4-4.6c0.2-0.2,0.3-0.3,0.5-0.3
			C192.3,31.1,192.5,31.3,192.5,31.6z"/>
		<path class="st0" d="M199.8,31.7v5.4c0,0.3-0.2,0.5-0.5,0.5s-0.5-0.2-0.5-0.5v-1.7h-1.8c-0.1,0-0.2,0-0.2,0l-1.7,2
			c-0.1,0.1-0.2,0.2-0.4,0.2c-0.3,0-0.5-0.2-0.5-0.5c0-0.1,0.1-0.2,0.1-0.3l1.5-1.6c-0.8-0.3-1.2-1-1.2-1.9c0-1.3,1-2.2,2.4-2.2h2.3
			C199.6,31.2,199.8,31.5,199.8,31.7z M198.8,32.1h-1.7c-0.9,0-1.5,0.5-1.5,1.2c0,0.8,0.6,1.3,1.5,1.3h1.7V32.1z"/>
	</g>
</g>
</svg>
