<svg xmlns="http://www.w3.org/2000/svg" xmlns:xlink="http://www.w3.org/1999/xlink"><symbol id="001-medicine" viewBox="0 0 80 80">
<style type="text/css">
	.st0{opacity:0.25;}
	.st1{fill:#16AFE0;}
</style>
<g class="st0">
	<path class="st1" d="M40,1c21.5,0,39,17.5,39,39S61.5,79,40,79S1,61.5,1,40S18.5,1,40,1 M40,0C17.9,0,0,17.9,0,40s17.9,40,40,40
		s40-17.9,40-40S62.1,0,40,0L40,0z"/>
</g>
<g>
	<g>
		<g>
			<path class="st1" d="M48.7,31.3c-0.2-0.2-0.6-0.2-0.9,0c-0.2,0.2-0.2,0.6,0,0.9c0.2,0.2,0.6,0.2,0.9,0C49,31.9,49,31.5,48.7,31.3
				z"/>
		</g>
	</g>
	<g>
		<g>
			<path class="st1" d="M32.2,47.8c-0.2-0.2-0.6-0.2-0.9,0c-0.2,0.2-0.2,0.6,0,0.9c0.2,0.2,0.6,0.2,0.9,0
				C32.4,48.5,32.4,48.1,32.2,47.8z"/>
		</g>
	</g>
	<g>
		<g>
			<path class="st1" d="M55.1,33.8l-8.8-8.8c-1.2-1.2-3.2-1.2-4.4,0L24.9,41.8c-1.2,1.2-1.2,3.2,0,4.4l8.8,8.8c0,0,0,0,0,0
				c1.2,1.2,3.2,1.2,4.4,0l16.9-16.9C56.3,37,56.3,35,55.1,33.8z M54.2,37.3L37.3,54.2c-0.7,0.7-1.9,0.7-2.7,0c0,0,0,0,0,0l-8.8-8.8
				c-0.7-0.7-0.7-1.9,0-2.7l16.9-16.9c0.7-0.7,1.9-0.7,2.7,0l8.8,8.8C54.9,35.4,54.9,36.6,54.2,37.3z"/>
		</g>
	</g>
	<g>
		<g>
			<path class="st1" d="M51.8,34.4c-1-1-2.6-1-3.5,0c-1,1-1,2.6,0,3.5c1,1,2.6,1,3.5,0v0C52.8,36.9,52.8,35.4,51.8,34.4z M50.9,37
				c-0.5,0.5-1.3,0.5-1.8,0c-0.5-0.5-0.5-1.3,0-1.8c0.5-0.5,1.3-0.5,1.8,0C51.4,35.8,51.4,36.5,50.9,37z"/>
		</g>
	</g>
	<g>
		<g>
			<path class="st1" d="M47.2,39c-1-1-2.6-1-3.5,0c-1,1-1,2.6,0,3.5c1,1,2.6,1,3.5,0c0,0,0,0,0,0C48.2,41.6,48.2,40,47.2,39z
				 M46.3,41.6c-0.5,0.5-1.3,0.5-1.8,0c-0.5-0.5-0.5-1.3,0-1.8c0.5-0.5,1.3-0.5,1.8,0C46.8,40.4,46.8,41.2,46.3,41.6z"/>
		</g>
	</g>
	<g>
		<g>
			<path class="st1" d="M42.5,43.7c-1-1-2.6-1-3.5,0c-1,1-1,2.6,0,3.5c1,1,2.6,1,3.5,0c0,0,0,0,0,0C43.5,46.2,43.5,44.6,42.5,43.7z
				 M41.6,46.3c-0.5,0.5-1.3,0.5-1.8,0c-0.5-0.5-0.5-1.3,0-1.8c0.5-0.5,1.3-0.5,1.8,0C42.1,45,42.1,45.8,41.6,46.3z"/>
		</g>
	</g>
	<g>
		<g>
			<path class="st1" d="M37.9,48.3c-1-1-2.6-1-3.5,0c-1,1-1,2.6,0,3.5c1,1,2.6,1,3.5,0c0,0,0,0,0,0C38.9,50.8,38.9,49.2,37.9,48.3z
				 M37,50.9c-0.5,0.5-1.3,0.5-1.8,0c-0.5-0.5-0.5-1.3,0-1.8c0.5-0.5,1.3-0.5,1.8,0C37.5,49.6,37.5,50.4,37,50.9z"/>
		</g>
	</g>
	<g>
		<g>
			<path class="st1" d="M45.6,28.2c-1-1-2.6-1-3.5,0c-1,1-1,2.6,0,3.5c1,1,2.6,1,3.5,0C46.6,30.8,46.6,29.2,45.6,28.2z M44.7,30.8
				C44.7,30.8,44.7,30.8,44.7,30.8c-0.5,0.5-1.3,0.5-1.8,0c-0.5-0.5-0.5-1.3,0-1.8c0.5-0.5,1.3-0.5,1.8,0
				C45.2,29.6,45.2,30.4,44.7,30.8z"/>
		</g>
	</g>
	<g>
		<g>
			<path class="st1" d="M41,32.8c-1-1-2.6-1-3.5,0c-1,1-1,2.6,0,3.5c1,1,2.6,1,3.5,0C42,35.4,42,33.8,41,32.8z M40.1,35.5
				C40.1,35.5,40.1,35.5,40.1,35.5c-0.5,0.5-1.3,0.5-1.8,0c-0.5-0.5-0.5-1.3,0-1.8c0.5-0.5,1.3-0.5,1.8,0
				C40.6,34.2,40.6,35,40.1,35.5z"/>
		</g>
	</g>
	<g>
		<g>
			<path class="st1" d="M36.3,37.5c-1-1-2.6-1-3.5,0c-1,1-1,2.6,0,3.5c1,1,2.6,1,3.5,0C37.3,40,37.3,38.5,36.3,37.5z M35.5,40.1
				C35.5,40.1,35.5,40.1,35.5,40.1c-0.5,0.5-1.3,0.5-1.8,0c-0.5-0.5-0.5-1.3,0-1.8c0.5-0.5,1.3-0.5,1.8,0
				C35.9,38.8,35.9,39.6,35.5,40.1z"/>
		</g>
	</g>
	<g>
		<g>
			<path class="st1" d="M31.7,42.1c-1-1-2.6-1-3.5,0c-1,1-1,2.6,0,3.5c1,1,2.6,1,3.5,0C32.7,44.6,32.7,43.1,31.7,42.1z M30.8,44.7
				C30.8,44.7,30.8,44.7,30.8,44.7c-0.5,0.5-1.3,0.5-1.8,0c-0.5-0.5-0.5-1.3,0-1.8c0.5-0.5,1.3-0.5,1.8,0
				C31.3,43.5,31.3,44.2,30.8,44.7z"/>
		</g>
	</g>
	<g>
		<g>
			<path class="st1" d="M46.9,33.1c-0.2-0.2-0.6-0.2-0.9,0l-13,13c-0.2,0.2-0.2,0.6,0,0.9c0.2,0.2,0.6,0.2,0.9,0l13-13
				C47.2,33.7,47.2,33.3,46.9,33.1z"/>
		</g>
	</g>
</g>
</symbol><symbol id="002-siren" viewBox="0 0 80 80">
<style type="text/css">
	.st0{opacity:0.25;}
	.st1{fill:#16AFE0;}
</style>
<g class="st0">
	<path class="st1" d="M40,1c21.5,0,39,17.5,39,39S61.5,79,40,79S1,61.5,1,40S18.5,1,40,1 M40,0C17.9,0,0,17.9,0,40s17.9,40,40,40
		s40-17.9,40-40S62.1,0,40,0L40,0z"/>
</g>
<g>
	<g>
		<g>
			<path class="st1" d="M44.8,40c-0.4,0-0.7,0.3-0.7,0.7s0.3,0.7,0.7,0.7s0.7-0.3,0.7-0.7S45.2,40,44.8,40z"/>
		</g>
	</g>
	<g>
		<g>
			<path class="st1" d="M50.9,50.9h-0.8l-2.2-12.5c-0.4-2.3-2.4-3.9-4.7-3.9h-6.4c-2.3,0-4.3,1.7-4.7,3.9l-2.2,12.5h-0.8
				c-1.1,0-2.1,0.9-2.1,2.1v2.7c0,0.4,0.3,0.7,0.7,0.7h24.6c0.4,0,0.7-0.3,0.7-0.7V53C53,51.9,52.1,50.9,50.9,50.9z M33.5,38.7
				c0.3-1.6,1.7-2.8,3.4-2.8h6.4c1.7,0,3.1,1.2,3.4,2.8l2.2,12.2H31.3L33.5,38.7z M51.6,55H28.4V53c0-0.4,0.3-0.7,0.7-0.7
				c1.5,0,20.9,0,21.9,0c0.4,0,0.7,0.3,0.7,0.7V55z"/>
		</g>
	</g>
	<g>
		<g>
			<path class="st1" d="M47,48.8l-1-5.5c-0.1-0.4-0.4-0.6-0.8-0.6c-0.4,0.1-0.6,0.4-0.6,0.8l1,5.5c0.1,0.4,0.4,0.6,0.8,0.6
				C46.8,49.5,47.1,49.1,47,48.8z"/>
		</g>
	</g>
	<g>
		<g>
			<path class="st1" d="M56.8,40h-5.9c-0.4,0-0.7,0.3-0.7,0.7s0.3,0.7,0.7,0.7h5.9c0.4,0,0.7-0.3,0.7-0.7S57.2,40,56.8,40z"/>
		</g>
	</g>
	<g>
		<g>
			<path class="st1" d="M29.1,40h-5.9c-0.4,0-0.7,0.3-0.7,0.7s0.3,0.7,0.7,0.7h5.9c0.4,0,0.7-0.3,0.7-0.7S29.4,40,29.1,40z"/>
		</g>
	</g>
	<g>
		<g>
			<path class="st1" d="M52.1,28.6c-0.3-0.3-0.7-0.3-1,0l-3.9,3.9c-0.3,0.3-0.3,0.7,0,1c0.3,0.3,0.7,0.3,1,0l3.9-3.9
				C52.4,29.3,52.4,28.9,52.1,28.6z"/>
		</g>
	</g>
	<g>
		<g>
			<path class="st1" d="M32.7,32.5l-3.9-3.9c-0.3-0.3-0.7-0.3-1,0c-0.3,0.3-0.3,0.7,0,1l3.9,3.9c0.3,0.3,0.7,0.3,1,0
				C33,33.2,33,32.7,32.7,32.5z"/>
		</g>
	</g>
	<g>
		<g>
			<path class="st1" d="M40,23.6c-0.4,0-0.7,0.3-0.7,0.7v5.5c0,0.4,0.3,0.7,0.7,0.7s0.7-0.3,0.7-0.7v-5.5
				C40.7,23.9,40.4,23.6,40,23.6z"/>
		</g>
	</g>
</g>
</symbol><symbol id="003-health" viewBox="0 0 80 80">
<style type="text/css">
	.st0{opacity:0.25;}
	.st1{fill:#16AFE0;}
</style>
<g class="st0">
	<path class="st1" d="M40,1c21.5,0,39,17.5,39,39S61.5,79,40,79S1,61.5,1,40S18.5,1,40,1 M40,0C17.9,0,0,17.9,0,40s17.9,40,40,40
		s40-17.9,40-40S62.1,0,40,0L40,0z"/>
</g>
<g>
	<g>
		<g>
			<path class="st1" d="M51.8,27.8c-0.4,0-0.7,0.3-0.7,0.7s0.3,0.7,0.7,0.7s0.7-0.3,0.7-0.7C52.6,28.1,52.2,27.8,51.8,27.8z"/>
		</g>
	</g>
	<g>
		<g>
			<path class="st1" d="M55.5,27c-1.7-1.9-4-2.9-6.6-2.9c-2.8,0-5.3,1.1-7.4,3.1c-0.7,0.7-1.2,1.4-1.6,2c-0.4-0.6-0.9-1.3-1.6-2
				c-2-2-4.6-3.1-7.4-3.1c-5.3,0-9.1,4.5-9.1,9.8c0,7.2,7.6,13.2,17.5,21.8c0.1,0.1,0.3,0.2,0.5,0.2s0.3-0.1,0.5-0.2
				C50.4,47.1,58,41,58,33.9C58,31.3,57.1,28.9,55.5,27z M40,54.2c-9.4-8.1-16.6-14-16.6-20.4c0-4.8,3.3-8.4,7.6-8.4
				c2.4,0,4.5,0.9,6.3,2.7c1.4,1.4,2,2.7,2,2.7c0.1,0.3,0.4,0.4,0.6,0.4c0,0,0,0,0,0c0.3,0,0.5-0.2,0.6-0.4c0,0,0.6-1.4,2-2.7
				c1.8-1.8,3.9-2.7,6.3-2.7c4.4,0,7.6,3.6,7.6,8.4C56.6,40.4,48.9,46.5,40,54.2z"/>
		</g>
	</g>
	<g>
		<g>
			<path class="st1" d="M54.3,30.3c-0.2-0.3-0.6-0.5-0.9-0.3c-0.3,0.2-0.5,0.6-0.3,0.9c0.5,0.9,0.7,1.9,0.7,3c0,2-1,4.2-3,6.8
				c-0.2,0.3-0.2,0.7,0.1,1c0.3,0.2,0.7,0.2,1-0.1c2.3-2.9,3.4-5.3,3.4-7.7C55.2,32.6,54.9,31.4,54.3,30.3z"/>
		</g>
	</g>
	<g>
		<g>
			<path class="st1" d="M46.8,37.6h-3.9v-3.9c0-0.4-0.3-0.7-0.7-0.7h-4.2c-0.4,0-0.7,0.3-0.7,0.7v3.9h-3.9c-0.4,0-0.7,0.3-0.7,0.7
				v4.2c0,0.4,0.3,0.7,0.7,0.7h3.9v3.9c0,0.4,0.3,0.7,0.7,0.7h4.2c0.4,0,0.7-0.3,0.7-0.7v-3.9h3.9c0.4,0,0.7-0.3,0.7-0.7v-4.2
				C47.5,37.9,47.1,37.6,46.8,37.6z M46,41.8h-3.9c-0.4,0-0.7,0.3-0.7,0.7v3.9h-2.8v-3.9c0-0.4-0.3-0.7-0.7-0.7H34V39h3.9
				c0.4,0,0.7-0.3,0.7-0.7v-3.9h2.8v3.9c0,0.4,0.3,0.7,0.7,0.7H46V41.8z"/>
		</g>
	</g>
</g>
</symbol><symbol id="004-smartwatch" viewBox="0 0 80 80">
<style type="text/css">
	.st0{opacity:0.25;}
	.st1{fill:#16AFE0;}
</style>
<g class="st0">
	<path class="st1" d="M40,1c21.5,0,39,17.5,39,39S61.5,79,40,79S1,61.5,1,40S18.5,1,40,1 M40,0C17.9,0,0,17.9,0,40s17.9,40,40,40
		s40-17.9,40-40S62.1,0,40,0L40,0z"/>
</g>
<g>
	<g>
		<g>
			<path class="st1" d="M38.7,31.7c-0.4,0-0.6,0.3-0.6,0.6c0,0.4,0.3,0.6,0.6,0.6c0.4,0,0.6-0.3,0.6-0.6
				C39.4,32,39.1,31.7,38.7,31.7z"/>
		</g>
	</g>
	<g>
		<g>
			<path class="st1" d="M49.6,39.4c1.1,0,1.9-0.9,1.9-1.9v-1.3c0-1.1-0.9-1.9-1.9-1.9h-0.6v-0.6c0-2.4-1.8-4.3-4.2-4.5
				c-0.5-3.1-0.7-4-0.7-4.1c-0.2-0.9-1-1.5-1.9-1.5h-6.9c-0.9,0-1.6,0.6-1.9,1.5c0,0-0.2,0.9-0.7,4.1c-2.3,0.2-4.2,2.1-4.2,4.5v12.8
				c0,2.4,1.8,4.3,4.2,4.5l0.7,4c0,0,0,0,0,0c0.2,0.9,1,1.5,1.9,1.5h6.9c0.9,0,1.6-0.6,1.9-1.5c0,0,0,0,0,0l0.7-4
				c2.3-0.2,4.2-2.1,4.2-4.5v-0.6h0.6c1.1,0,1.9-0.9,1.9-1.9v-1.3c0-1.1-0.9-1.9-1.9-1.9h-0.6v-1.3H49.6z M48.9,35.5h0.6
				c0.4,0,0.6,0.3,0.6,0.6v1.3c0,0.4-0.3,0.6-0.6,0.6h-0.6V35.5z M34.6,25.4c0.1-0.3,0.3-0.5,0.6-0.5h6.9c0.3,0,0.5,0.2,0.6,0.5
				l0.7,3.8H34L34.6,25.4z M42.8,54.6c-0.1,0.3-0.3,0.5-0.6,0.5h-6.9c-0.3,0-0.5-0.2-0.6-0.5L34,50.9h9.5L42.8,54.6z M47.7,46.4
				c0,1.8-1.4,3.2-3.2,3.2H33c-1.8,0-3.2-1.4-3.2-3.2V33.6c0-1.8,1.4-3.2,3.2-3.2c0.6,0,10.8,0,11.5,0c1.8,0,3.2,1.4,3.2,3.2
				C47.7,35.5,47.7,44.3,47.7,46.4z M49.6,41.9c0.4,0,0.6,0.3,0.6,0.6v1.3c0,0.4-0.3,0.6-0.6,0.6h-0.6v-2.6H49.6z"/>
		</g>
	</g>
	<g>
		<g>
			<path class="st1" d="M44.5,31.7h-3.2c-0.4,0-0.6,0.3-0.6,0.6c0,0.4,0.3,0.6,0.6,0.6h3.2c0.4,0,0.6,0.3,0.6,0.6v5.8h-3.2
				c-0.3,0-0.5,0.2-0.6,0.4l-0.7,2l-0.7-2c-0.1-0.3-0.3-0.4-0.6-0.4h-0.8l-1.2-4.6c-0.1-0.3-0.3-0.5-0.6-0.5c-0.3,0-0.5,0.2-0.6,0.5
				L35,39.4h-2.7v-5.8c0-0.4,0.3-0.6,0.6-0.6h1.9c0.4,0,0.6-0.3,0.6-0.6c0-0.4-0.3-0.6-0.6-0.6H33c-1.1,0-1.9,0.9-1.9,1.9v12.8
				c0,1.1,0.9,1.9,1.9,1.9h11.5c1.1,0,1.9-0.9,1.9-1.9V33.6C46.4,32.6,45.5,31.7,44.5,31.7z M45.1,46.4c0,0.4-0.3,0.6-0.6,0.6H33
				c-0.4,0-0.6-0.3-0.6-0.6v-5.8h3.2c0.3,0,0.5-0.2,0.6-0.5l0.7-2.6l0.7,2.6c0.1,0.3,0.3,0.5,0.6,0.5h0.8L40,44
				c0.1,0.3,0.3,0.4,0.6,0.4c0.3,0,0.5-0.2,0.6-0.4l1.1-3.4h2.7V46.4z"/>
		</g>
	</g>
</g>
</symbol><symbol id="005-facebook" viewBox="0 0 80 80">
<style type="text/css">
	.st0{opacity:0.25;}
	.st1{fill:#16AFE0;}
</style>
<g class="st0">
	<path class="st1" d="M40,1c21.5,0,39,17.5,39,39S61.5,79,40,79S1,61.5,1,40S18.5,1,40,1 M40,0C17.9,0,0,17.9,0,40s17.9,40,40,40
		s40-17.9,40-40S62.1,0,40,0L40,0z"/>
</g>
<g>
	<g>
		<g>
			<rect x="34.7" y="26.7" class="st1" width="10.7" height="1.1"/>
		</g>
	</g>
	<g>
		<g>
			<path class="st1" d="M50.4,44c0-1-0.8-1.9-1.9-1.9h-1.1v-7.5h-1.1v7.5h-1.3c-1,0-1.9,0.8-1.9,1.9c0,0.5,0.2,1,0.6,1.3
				c-0.3,0.3-0.6,0.8-0.6,1.3c0,0.4,0.1,0.7,0.3,1c-0.6,0.3-1.1,0.9-1.1,1.7c0,0.3,0.1,0.6,0.2,0.8h-4.2c0-1.6-0.8-3.1-2.1-3.9
				c1.2-0.5,2.1-1.6,2.1-3c0-0.3-0.2-0.5-0.5-0.5h-4.3v-5.3h-1.1v5.3c-0.9,0-1.6,0.7-1.6,1.6V56H32V44.3c0-0.3,0.2-0.5,0.5-0.5h4.7
				c-0.2,0.9-1.1,1.6-2.1,1.6h-1.6c-0.3,0-0.5,0.2-0.5,0.5c0,0.3,0.2,0.5,0.5,0.5c2.1,0,3.7,1.7,3.7,3.7v0.5c0,0.3,0.2,0.5,0.5,0.5
				H41c-0.1,0.2-0.2,0.5-0.2,0.8c0,1,0.8,1.9,1.9,1.9V56h1.1v-2.1h2.1h0.3c1,0,1.9-0.8,1.9-1.9c0-0.3-0.1-0.6-0.2-0.8
				c1,0,1.8-0.9,1.8-1.9c0-0.4-0.1-0.7-0.3-1c0.6-0.3,1.1-0.9,1.1-1.7c0-0.5-0.2-1-0.6-1.3C50.2,45,50.4,44.5,50.4,44z M46.1,52.8
				h-0.3h-2.7h-0.5c-0.4,0-0.8-0.4-0.8-0.8s0.4-0.8,0.8-0.8h1.6h1.9c0.4,0,0.8,0.4,0.8,0.8S46.6,52.8,46.1,52.8z M47.7,50.1h-1.6
				h-1.9c-0.4,0-0.8-0.4-0.8-0.8c0-0.4,0.4-0.8,0.8-0.8h0.8h2.7c0.4,0,0.8,0.4,0.8,0.8C48.5,49.8,48.2,50.1,47.7,50.1z M48.5,47.5
				h-0.8h-2.7c-0.4,0-0.8-0.4-0.8-0.8c0-0.4,0.4-0.8,0.8-0.8h3.5c0.4,0,0.8,0.4,0.8,0.8C49.3,47.1,49,47.5,48.5,47.5z M48.5,44.8
				h-3.5c-0.4,0-0.8-0.4-0.8-0.8s0.4-0.8,0.8-0.8h3.5c0.4,0,0.8,0.4,0.8,0.8S49,44.8,48.5,44.8z"/>
		</g>
	</g>
	<g>
		<g>
			<path class="st1" d="M32,30.8c0-0.2-0.1-0.3-0.2-0.4L31.2,30c-0.1-0.7-0.7-1.2-1.4-1.2c-0.8,0-1.4,0.6-1.5,1.4
				c-0.4-0.1-0.8-0.2-1.2-0.5L27,29.6c-0.2-0.1-0.4-0.1-0.5,0c-0.2,0.1-0.3,0.3-0.3,0.5v0.4c0,0.6,0.2,1.3,0.6,1.8l-0.4,0.4
				c-0.2,0.2-0.2,0.4-0.1,0.6c0.1,0.2,0.3,0.3,0.5,0.3h2.6c1,0,1.9-0.8,2-1.8l0.6-0.6C32,31.1,32,30.9,32,30.8z M30.3,31.2
				c-0.1,0.1-0.2,0.2-0.2,0.4c0,0.5-0.4,1-0.9,1h-1.4c0.1-0.2,0-0.4-0.1-0.6c-0.2-0.3-0.4-0.6-0.5-0.9c0.5,0.2,1.1,0.3,1.6,0.3
				c0.3,0,0.5-0.2,0.5-0.5v-0.6c0-0.2,0.2-0.4,0.4-0.4c0.2,0,0.4,0.2,0.4,0.4c0,0.2,0.1,0.3,0.2,0.4l0.3,0.2L30.3,31.2z"/>
		</g>
	</g>
	<g>
		<g>
			<path class="st1" d="M41.6,33.1V32H40c-0.3,0-0.5,0.2-0.5,0.5v1.6h-1.1v1.1h1.1v2.1h1.1v-2.1h1.1v-1.1h-1.1v-1.1H41.6z"/>
		</g>
	</g>
	<g>
		<g>
			<path class="st1" d="M43.2,29.9h-6.4c-0.9,0-1.6,0.7-1.6,1.6v6.4c0,0.9,0.7,1.6,1.6,1.6h6.4c0.9,0,1.6-0.7,1.6-1.6v-6.4
				C44.8,30.6,44.1,29.9,43.2,29.9z M43.7,37.9c0,0.3-0.2,0.5-0.5,0.5h-6.4c-0.3,0-0.5-0.2-0.5-0.5v-6.4c0-0.3,0.2-0.5,0.5-0.5h6.4
				c0.3,0,0.5,0.2,0.5,0.5V37.9z"/>
		</g>
	</g>
	<g>
		<g>
			<path class="st1" d="M32,26.7h-6.4c-0.9,0-1.6,0.7-1.6,1.6v6.4c0,0.9,0.7,1.6,1.6,1.6H32c0.9,0,1.6-0.7,1.6-1.6v-6.4
				C33.6,27.4,32.9,26.7,32,26.7z M32.5,34.7c0,0.3-0.2,0.5-0.5,0.5h-6.4c-0.3,0-0.5-0.2-0.5-0.5v-6.4c0-0.3,0.2-0.5,0.5-0.5H32
				c0.3,0,0.5,0.2,0.5,0.5V34.7z"/>
		</g>
	</g>
	<g>
		<g>
			<path class="st1" d="M54.4,24H48c-0.9,0-1.6,0.7-1.6,1.6V32c0,0.9,0.7,1.6,1.6,1.6h6.4c0.9,0,1.6-0.7,1.6-1.6v-6.4
				C56,24.7,55.3,24,54.4,24z M54.9,32c0,0.3-0.2,0.5-0.5,0.5H48c-0.3,0-0.5-0.2-0.5-0.5v-2.7h1.1c0.2,1.2,1.3,2.1,2.6,2.1
				s2.4-0.9,2.6-2.1h1.1V32z M49.6,28.8c0-0.9,0.7-1.6,1.6-1.6s1.6,0.7,1.6,1.6c0,0.9-0.7,1.6-1.6,1.6S49.6,29.7,49.6,28.8z
				 M54.9,28.3h-1.1c-0.2-1.2-1.3-2.1-2.6-2.1s-2.4,0.9-2.6,2.1h-1.1v-2.7c0-0.3,0.2-0.5,0.5-0.5h6.4c0.3,0,0.5,0.2,0.5,0.5V28.3z"/>
		</g>
	</g>
	<g>
		<g>
			<rect x="39.5" y="45.9" class="st1" width="1.1" height="1.1"/>
		</g>
	</g>
</g>
</symbol><symbol id="006-conversation" viewBox="0 0 80 80">
<style type="text/css">
	.st0{opacity:0.25;}
	.st1{fill:#16AFE0;}
</style>
<g class="st0">
	<path class="st1" d="M40,1c21.5,0,39,17.5,39,39S61.5,79,40,79S1,61.5,1,40S18.5,1,40,1 M40,0C17.9,0,0,17.9,0,40s17.9,40,40,40
		s40-17.9,40-40S62.1,0,40,0L40,0z"/>
</g>
<g>
	<g>
		<g>
			<path class="st1" d="M35.4,46.9c0,0-0.1,0-0.1,0c0.7-0.7,1.1-1.7,1.1-2.8v-3.3c0,0,0-0.1,0-0.1c0-0.1,0-0.1,0-0.2v-2.1
				c0-0.3-0.3-0.6-0.6-0.6h-4.2c-1.8,0-3.2,1.4-3.2,3.2v3.1c0,1.1,0.4,2,1.1,2.8c0,0-0.1,0-0.1,0c-3,0.3-5.3,2.8-5.3,5.8v2.7
				c0,0.3,0.3,0.6,0.6,0.6H40c0.3,0,0.6-0.3,0.6-0.6v-2.7C40.6,49.7,38.3,47.2,35.4,46.9z M29.6,41.9v-0.8c0-1.1,0.9-2,2-2h3.6v1.5
				c0,0.7-0.6,1.3-1.3,1.3L29.6,41.9L29.6,41.9z M29.6,43.2h4.2c0.5,0,0.9-0.1,1.3-0.4v1.3c0,1.5-1.2,2.8-2.8,2.8
				c-1.5,0-2.8-1.2-2.8-2.8V43.2z M33.7,48.2l-1.4,1.4L31,48.2H33.7z M39.4,54.8L39.4,54.8H25.3v-1.3h2.6c0.3,0,0.6-0.3,0.6-0.6
				s-0.3-0.6-0.6-0.6h-2.6c0.2-2.1,1.9-3.8,4-4.1l2.6,2.6C32,51,32.2,51,32.3,51c0.2,0,0.3-0.1,0.4-0.2l2.6-2.6c2.2,0.3,4,2.2,4,4.5
				V54.8z"/>
		</g>
	</g>
	<g>
		<g>
			<path class="st1" d="M50.7,33c0,0-0.1,0-0.1,0c0.7-0.7,1.1-1.7,1.1-2.8V27c0,0,0-0.1,0-0.1c0-0.1,0-0.1,0-0.2v-2.1
				c0-0.3-0.3-0.6-0.6-0.6h-4.2c-1.8,0-3.2,1.4-3.2,3.2v3.1c0,1.1,0.4,2,1.1,2.8c0,0-0.1,0-0.1,0c-3,0.3-5.3,2.8-5.3,5.8v2.7
				c0,0.3,0.3,0.6,0.6,0.6h5c0.3,0,0.6-0.3,0.6-0.6s-0.3-0.6-0.6-0.6h-4.4v-2c0-2.3,1.7-4.2,4-4.5l2.6,2.6c0.1,0.1,0.3,0.2,0.4,0.2
				c0.2,0,0.3-0.1,0.4-0.2l2.6-2.6c2.2,0.3,4,2.2,4,4.5v2h-4.6c-0.3,0-0.6,0.3-0.6,0.6c0,0.3,0.3,0.6,0.6,0.6h5.2
				c0.3,0,0.6-0.3,0.6-0.6v-2.7C56,35.8,53.7,33.3,50.7,33z M47.7,35.6l-1.4-1.4H49L47.7,35.6z M50.4,30.3c0,1.5-1.2,2.8-2.8,2.8
				s-2.8-1.2-2.8-2.8v-1h4.2c0.5,0,0.9-0.1,1.3-0.4V30.3z M50.4,26.7c0,0.7-0.6,1.3-1.3,1.3h-4.2v0v-0.8c0-1.1,0.9-2,2-2h3.6V26.7
				L50.4,26.7z"/>
		</g>
	</g>
	<g>
		<g>
			<path class="st1" d="M48.1,41.1c-0.1-0.1-0.3-0.2-0.4-0.2c-0.2,0-0.3,0.1-0.4,0.2c-0.1,0.1-0.2,0.3-0.2,0.4
				c0,0.2,0.1,0.3,0.2,0.4c0.1,0.1,0.3,0.2,0.4,0.2c0.2,0,0.3-0.1,0.4-0.2c0.1-0.1,0.2-0.3,0.2-0.4C48.3,41.3,48.2,41.2,48.1,41.1z"/>
		</g>
	</g>
	<g>
		<g>
			<path class="st1" d="M40.7,32.7l-2.6-2.6v-3c0-1.7-1.4-3.1-3.1-3.1h-7.8c-1.7,0-3.1,1.4-3.1,3.1v5.5c0,1.7,1.4,3.1,3.1,3.1H35
				c1.3,0,2.4-0.8,2.9-1.9h2.4c0.3,0,0.5-0.2,0.6-0.4C40.9,33.2,40.9,32.9,40.7,32.7z M37.4,32.6c-0.3,0-0.5,0.2-0.6,0.5
				c-0.2,0.9-0.9,1.5-1.8,1.5h-7.8c-1,0-1.9-0.8-1.9-1.9v-5.5c0-1,0.8-1.9,1.9-1.9H35c1,0,1.9,0.8,1.9,1.9v3.3
				c0,0.2,0.1,0.3,0.2,0.4l1.7,1.7H37.4z"/>
		</g>
	</g>
	<g>
		<g>
			<path class="st1" d="M52.9,44.3H45c-1.3,0-2.4,0.8-2.9,1.9h-2.4c-0.3,0-0.5,0.2-0.6,0.4c-0.1,0.2,0,0.5,0.1,0.7l2.6,2.6v3
				c0,1.7,1.4,3.1,3.1,3.1h7.8c1.7,0,3.1-1.4,3.1-3.1v-5.5C56,45.7,54.6,44.3,52.9,44.3z M54.8,52.9c0,1-0.8,1.9-1.9,1.9H45
				c-1,0-1.9-0.8-1.9-1.9v-3.3c0-0.2-0.1-0.3-0.2-0.4l-1.7-1.7h1.4c0.3,0,0.5-0.2,0.6-0.5c0.2-0.9,0.9-1.5,1.8-1.5h7.8
				c1,0,1.9,0.8,1.9,1.9V52.9z"/>
		</g>
	</g>
	<g>
		<g>
			<path class="st1" d="M51.8,48.5c-0.2-0.2-0.6-0.2-0.9,0l-1.7,1.7l-0.8-0.8c-0.2-0.2-0.6-0.2-0.9,0c-0.2,0.2-0.2,0.6,0,0.9
				l1.2,1.2c0.1,0.1,0.3,0.2,0.4,0.2s0.3-0.1,0.4-0.2l2.1-2.1C52,49.1,52,48.7,51.8,48.5z"/>
		</g>
	</g>
	<g>
		<g>
			<path class="st1" d="M33.9,28.1c-0.1-1.1-0.9-1.9-2-2c-0.6,0-1.2,0.2-1.6,0.6c-0.4,0.4-0.7,1-0.7,1.6c0,0.3,0.3,0.6,0.6,0.6
				s0.6-0.3,0.6-0.6c0-0.3,0.1-0.5,0.3-0.7c0.2-0.2,0.4-0.3,0.7-0.2c0.5,0,0.8,0.4,0.8,0.8c0,0.5-0.3,0.9-0.7,1
				c-0.5,0.1-0.8,0.5-0.8,1v0.3c0,0.3,0.3,0.6,0.6,0.6s0.6-0.3,0.6-0.6v-0.2C33.3,30.1,34,29.2,33.9,28.1z"/>
		</g>
	</g>
	<g>
		<g>
			<path class="st1" d="M32.2,32.5c-0.1-0.1-0.3-0.2-0.4-0.2c-0.2,0-0.3,0.1-0.4,0.2c-0.1,0.1-0.2,0.3-0.2,0.4s0.1,0.3,0.2,0.4
				c0.1,0.1,0.3,0.2,0.4,0.2c0.2,0,0.3-0.1,0.4-0.2s0.2-0.3,0.2-0.4S32.3,32.6,32.2,32.5z"/>
		</g>
	</g>
	<g>
		<g>
			<path class="st1" d="M30.8,52.4c-0.1-0.1-0.3-0.2-0.4-0.2s-0.3,0.1-0.4,0.2c-0.1,0.1-0.2,0.3-0.2,0.4s0.1,0.3,0.2,0.4
				c0.1,0.1,0.3,0.2,0.4,0.2s0.3-0.1,0.4-0.2c0.1-0.1,0.2-0.3,0.2-0.4S30.9,52.5,30.8,52.4z"/>
		</g>
	</g>
</g>
</symbol><symbol id="about-bg" viewBox="0 0 1920 75">
<style type="text/css">
	.st0{fill:#F8F8F8;}
</style>
<path class="st0" d="M0,75C0,75,100-8.3,960-1c827,7,960,76,960,76H0z"/>
</symbol><symbol id="logo-footer" viewBox="0 0 160 17">
<style type="text/css">
	.st0{fill:#FFFFFF;}
</style>
<g>
	<path class="st0" d="M35.5,2.3c0.6,0,1-0.5,1-1s-0.5-1-1-1h0c-0.6,0-1,0.5-1,1S34.9,2.3,35.5,2.3z"/>
	<path class="st0" d="M39,2.3c0.6,0,1-0.5,1-1s-0.5-1-1-1h0c-0.6,0-1,0.5-1,1S38.4,2.3,39,2.3z"/>
	<path class="st0" d="M76.5,14.7h-0.9V6.6C75.5,5.2,74.4,4,73,4h-3c-2.9,0-5.2,2.3-5.2,5.2v5.5h-0.9c-0.6,0-1,0.5-1,1
		c0,0.6,0.5,1,1,1h12.7c0.6,0,1-0.5,1-1C77.5,15.2,77,14.7,76.5,14.7z M66.8,9.2c0-1.7,1.4-3.1,3.1-3.1h3c0.3,0,0.5,0.2,0.5,0.5v8.1
		h-6.7V9.2z"/>
	<path class="st0" d="M61.3,7.7c0-2-1.7-3.7-3.7-3.7h-4.3c-0.6,0-1,0.5-1,1c0,0.6,0.5,1,1,1h4.3c0.9,0,1.6,0.7,1.6,1.6
		s-0.7,1.6-1.6,1.6h-2.1c-0.6,0-1,0.5-1,1c0,0.6,0.5,1,1,1h2.1c0.9,0,1.6,0.7,1.6,1.6c0,0.9-0.7,1.6-1.6,1.6h-4.3c-0.6,0-1,0.5-1,1
		c0,0.6,0.5,1,1,1h4.3c2,0,3.7-1.7,3.7-3.7c0-1-0.4-2-1.1-2.7C60.9,9.7,61.3,8.8,61.3,7.7z"/>
	<path class="st0" d="M25.7,4h-5c-1.8,0-3.3,1.5-3.3,3.3v3.5c0,3.2,2.6,5.9,5.9,5.9c3.2,0,5.9-2.6,5.9-5.9V7.4
		C29.1,5.5,27.6,4,25.7,4z M27,10.9c0,2.1-1.7,3.8-3.8,3.8h0c-2.1,0-3.8-1.7-3.8-3.8V7.4c0-0.7,0.6-1.3,1.3-1.3h5
		c0.7,0,1.3,0.6,1.3,1.3V10.9z"/>
	<path class="st0" d="M11.7,4c-0.1,0-0.1,0-0.2,0c-1.6,0-3.1,0.9-4,2.1C6.6,4.9,5.1,4.1,3.5,4C3.5,4,3.4,4,3.3,4C1.1,4,0,5.8,0,7.6
		v8.2c0,0.6,0.5,1,1,1c0.6,0,1-0.5,1-1V7.6c0-0.2,0-1.5,1.3-1.5c0,0,0.1,0,0.1,0c1.6,0,3,1.4,3,3.1c0,0,0,0,0,0.1c0,0,0,0,0,0v1.1
		c0,0.6,0.5,1,1,1c0.6,0,1-0.5,1-1V9.2c0,0,0,0,0-0.1c0-1.7,1.4-3,3-3.1c0,0,0.1,0,0.1,0c1.2,0,1.3,1.3,1.3,1.5v8.2c0,0.6,0.5,1,1,1
		c0.6,0,1-0.5,1-1V7.6C15,5.8,13.9,4,11.7,4z"/>
	<path class="st0" d="M87.3,4h-5c-1.8,0-3.3,1.5-3.3,3.3v3.5c0,3.2,2.6,5.9,5.9,5.9c3.2,0,5.9-2.6,5.9-5.9V7.4
		C90.6,5.5,89.1,4,87.3,4z M88.6,10.9c0,2.1-1.7,3.8-3.8,3.8c-2.1,0-3.8-1.7-3.8-3.8V7.4c0-0.7,0.6-1.3,1.3-1.3h5
		c0.7,0,1.3,0.6,1.3,1.3V10.9z"/>
	<path class="st0" d="M115.2,4h-5c-1.8,0-3.3,1.5-3.3,3.3v3.5c0,3.2,2.6,5.9,5.9,5.9c3.2,0,5.9-2.6,5.9-5.9V7.4
		C118.5,5.5,117,4,115.2,4z M116.4,10.9c0,2.1-1.7,3.8-3.8,3.8c-2.1,0-3.8-1.7-3.8-3.8V7.4c0-0.7,0.6-1.3,1.3-1.3h5
		c0.7,0,1.3,0.6,1.3,1.3V10.9z"/>
	<path class="st0" d="M24.5,9.5h-0.6V8.9c0-0.4-0.3-0.7-0.7-0.7s-0.7,0.3-0.7,0.7v0.6h-0.6c-0.4,0-0.7,0.3-0.7,0.7
		c0,0.4,0.3,0.7,0.7,0.7h0.6v0.6c0,0.4,0.3,0.7,0.7,0.7s0.7-0.3,0.7-0.7V11h0.6c0.4,0,0.7-0.3,0.7-0.7C25.2,9.9,24.9,9.5,24.5,9.5z"/>
	<path class="st0" d="M34.4,12.4h3.4c2.9,0,5.3-2.4,5.3-5.3c0-1.7-1.4-3.1-3.1-3.1h-5.6c-1.7,0-3.1,1.4-3.1,3.1v2.3v2.9
		c0,2.5,2,4.5,4.5,4.5h4.9c0.6,0,1-0.5,1-1c0-0.6-0.5-1-1-1h-4.9c-1.3,0-2.4-1.1-2.4-2.4v0C33.8,12.4,34.1,12.4,34.4,12.4z
		 M34.4,6.1h5.6c0.6,0,1,0.4,1,1c0,1.8-1.5,3.3-3.3,3.3h-3.4c-0.6,0-1-0.4-1-1V7.1C33.4,6.5,33.9,6.1,34.4,6.1z"/>
	<path class="st0" d="M157.6,14.6h-4.9c-1.3,0-2.4-1.1-2.4-2.4v0c0.3,0.1,0.7,0.2,1,0.2h3.4c2.9,0,5.3-2.4,5.3-5.3
		c0-1.7-1.4-3.1-3.1-3.1h-5.6c-1.7,0-3.1,1.4-3.1,3.1v2.3v2.9c0,2.5,2,4.5,4.5,4.5h4.9c0.6,0,1-0.5,1-1
		C158.6,15.1,158.2,14.6,157.6,14.6z M151.3,6h5.6c0.6,0,1,0.4,1,1c0,1.8-1.5,3.3-3.3,3.3h-3.4c-0.6,0-1-0.4-1-1V7
		C150.3,6.5,150.8,6,151.3,6z"/>
	<path class="st0" d="M101.7,4h-5.6C94.4,4,93,5.4,93,7.1v2.3v6.4c0,0.6,0.5,1,1,1c0.6,0,1-0.5,1-1v-3.5c0.3,0.1,0.7,0.2,1,0.2h3.4
		c2.9,0,5.3-2.4,5.3-5.3C104.8,5.4,103.4,4,101.7,4z M99.4,10.4h-3.4c-0.6,0-1-0.4-1-1V7.1c0-0.6,0.4-1,1-1h5.6c0.6,0,1,0.4,1,1
		C102.7,8.9,101.2,10.4,99.4,10.4z"/>
	<path class="st0" d="M141.3,8.4h-3.4c-0.4,0-0.7,0.1-1,0.2V5.1c0-0.6-0.5-1-1-1s-1,0.5-1,1v6.4v2.3c0,1.7,1.4,3.1,3.1,3.1h5.6
		c1.7,0,3.1-1.4,3.1-3.1C146.6,10.8,144.2,8.4,141.3,8.4z M143.5,14.7h-5.6c-0.6,0-1-0.4-1-1v-2.3c0-0.6,0.4-1,1-1h3.4
		c1.8,0,3.3,1.5,3.3,3.3C144.5,14.3,144.1,14.7,143.5,14.7z"/>
	<path class="st0" d="M128.8,4h-5c-1.7,0-3.1,1.4-3.1,3.1v6.6c0,1.7,1.4,3.1,3.1,3.1h5c2,0,3.7-1.7,3.7-3.7c0-1-0.4-2-1.1-2.7
		c0.7-0.7,1.1-1.6,1.1-2.7C132.5,5.7,130.8,4,128.8,4z M128.8,14.7h-5c-0.6,0-1-0.4-1-1v-2.3c0.1,0,0.2,0.1,0.3,0.1h5.7
		c0.9,0,1.6,0.7,1.6,1.6C130.4,14,129.7,14.7,128.8,14.7z M128.8,9.4h-5.7c-0.1,0-0.2,0-0.3,0.1V7.1c0-0.6,0.4-1,1-1h5
		c0.9,0,1.6,0.7,1.6,1.6S129.7,9.4,128.8,9.4z"/>
</g>
</symbol><symbol id="logo" viewBox="0 0 200 40">
<style type="text/css">
	.st0{fill:#FFFFFF;}
</style>
<g>
	<g>
		<path class="st0" d="M44.4,2.6c0.7,0,1.3-0.6,1.3-1.3S45.1,0,44.4,0l0,0c-0.7,0-1.3,0.6-1.3,1.3S43.7,2.6,44.4,2.6z"/>
		<path class="st0" d="M48.7,2.6c0.8,0,1.3-0.5,1.3-1.2s-0.6-1.3-1.3-1.3l0,0c-0.7,0-1.3,0.6-1.3,1.3S48,2.6,48.7,2.6z"/>
		<path class="st0" d="M95.6,18.1h-1.2V8c0-1.8-1.4-3.2-3.2-3.2h-3.8c-3.6,0-6.5,2.9-6.5,6.5v6.9h-1.2c-0.7,0-1.3,0.6-1.3,1.3
			c0,0.7,0.6,1.3,1.3,1.3h15.8c0.7,0,1.3-0.6,1.3-1.3C96.9,18.7,96.3,18.1,95.6,18.1z M83.5,11.3c0-2.1,1.7-3.9,3.9-3.9h3.8
			c0.4,0,0.7,0.3,0.7,0.7v10.1h-8.3L83.5,11.3L83.5,11.3z"/>
		<path class="st0" d="M76.7,9.4c0-2.5-2.1-4.6-4.6-4.6h-5.4c-0.7,0-1.3,0.6-1.3,1.3c0,0.7,0.6,1.3,1.3,1.3H72c1.1,0,2,0.9,2,2
			s-0.9,2-2,2h-2.6c-0.7,0-1.3,0.6-1.3,1.3s0.6,1.3,1.3,1.3H72c1.1,0,2,0.9,2,2s-0.9,2-2,2h-5.4c-0.7,0-1.3,0.6-1.3,1.3
			c0,0.7,0.6,1.3,1.3,1.3H72c2.5,0,4.6-2.1,4.6-4.6c0-1.3-0.6-2.5-1.4-3.3C76.1,11.9,76.7,10.7,76.7,9.4z"/>
		<path class="st0" d="M32.1,4.8h-6.3c-2.3,0-4.2,1.9-4.2,4.2v4.4c0,4,3.3,7.3,7.3,7.3s7.3-3.3,7.3-7.3V9
			C36.3,6.7,34.4,4.8,32.1,4.8z M33.7,13.4c0,2.6-2.1,4.8-4.8,4.8l0,0c-2.6,0-4.8-2.1-4.8-4.8V9c0-0.9,0.7-1.6,1.6-1.6H32
			c0.9,0,1.6,0.7,1.6,1.6L33.7,13.4L33.7,13.4z"/>
		<path class="st0" d="M14.6,4.8c-0.1,0-0.1,0-0.2,0c-2,0-3.8,1.1-5,2.6c-1.1-1.5-3-2.6-5-2.6c-0.1,0-0.1,0-0.2,0C1.4,4.8,0,7,0,9.2
			v10.2c0,0.7,0.6,1.3,1.3,1.3s1.3-0.6,1.3-1.3V9.2c0-0.2,0-1.8,1.6-1.8c0.1,0,0.1,0,0.2,0c2.1,0,3.7,1.8,3.8,3.8v0.1c0,0,0,0,0,0.1
			v1.4c0,0.7,0.6,1.3,1.3,1.3s1.3-0.6,1.3-1.3v-1.5v-0.1c0-2.1,1.7-3.8,3.8-3.8c0.1,0,0.1,0,0.2,0c1.6,0,1.6,1.6,1.6,1.8v10.2
			c0,0.7,0.6,1.3,1.3,1.3c0.7,0,1.3-0.6,1.3-1.3V9.2C18.8,7,17.4,4.8,14.6,4.8z"/>
		<path class="st0" d="M109.1,4.8h-6.3c-2.3,0-4.2,1.9-4.2,4.2v4.4c0,4,3.3,7.3,7.3,7.3s7.3-3.3,7.3-7.3V9
			C113.3,6.7,111.4,4.8,109.1,4.8z M110.7,13.4c0,2.6-2.1,4.8-4.8,4.8c-2.6,0-4.8-2.1-4.8-4.8V9c0-0.9,0.7-1.6,1.6-1.6h6.3
			c0.9,0,1.6,0.7,1.6,1.6L110.7,13.4L110.7,13.4z"/>
		<path class="st0" d="M143.9,4.8h-6.3c-2.3,0-4.2,1.9-4.2,4.2v4.4c0,4,3.3,7.3,7.3,7.3c4,0,7.3-3.3,7.3-7.3V9
			C148.1,6.7,146.2,4.8,143.9,4.8z M145.6,13.4c0,2.6-2.1,4.8-4.8,4.8c-2.6,0-4.8-2.1-4.8-4.8V9c0-0.9,0.7-1.6,1.6-1.6h6.3
			c0.9,0,1.6,0.7,1.6,1.6L145.6,13.4L145.6,13.4z"/>
		<path class="st0" d="M30.7,11.7h-0.8v-0.8c0-0.5-0.4-0.9-0.9-0.9c-0.5,0-0.9,0.4-0.9,0.9v0.8h-0.8c-0.5,0-0.9,0.4-0.9,0.9
			s0.4,0.9,0.9,0.9h0.8v0.8c0,0.5,0.4,0.9,0.9,0.9c0.5,0,0.9-0.4,0.9-0.9v-0.8h0.8c0.5,0,0.9-0.4,0.9-0.9S31.2,11.7,30.7,11.7z"/>
		<path class="st0" d="M43,15.3h4.2c3.7,0,6.7-3,6.7-6.7c0-2.1-1.7-3.8-3.8-3.8h-7c-2.1,0-3.8,1.7-3.8,3.8v2.8V15
			c0,3.1,2.5,5.6,5.6,5.6H51c0.7,0,1.3-0.6,1.3-1.3c0-0.7-0.6-1.3-1.3-1.3h-6.1c-1.7,0-3-1.4-3-3l0,0C42.2,15.2,42.6,15.3,43,15.3z
			 M43,7.4h7c0.7,0,1.3,0.6,1.3,1.3c0,2.3-1.8,4.1-4.1,4.1H43c-0.7,0-1.3-0.6-1.3-1.3V8.6C41.8,7.9,42.4,7.4,43,7.4z"/>
		<path class="st0" d="M197,18.1h-6.1c-1.7,0-3-1.4-3-3l0,0c0.4,0.1,0.8,0.2,1.3,0.2h4.2c3.7,0,6.7-3,6.7-6.7c0-2.1-1.7-3.8-3.8-3.8
			h-7c-2.1,0-3.8,1.7-3.8,3.8v2.8V15c0,3.1,2.5,5.6,5.6,5.6h6.1c0.7,0,1.3-0.6,1.3-1.3C198.3,18.6,197.7,18.1,197,18.1z M189.2,7.3
			h7c0.7,0,1.3,0.6,1.3,1.3c0,2.3-1.8,4.1-4.1,4.1h-4.2c-0.7,0-1.3-0.6-1.3-1.3V8.5C187.9,7.9,188.5,7.3,189.2,7.3z"/>
		<path class="st0" d="M127.1,4.8h-7c-2.1,0-3.8,1.7-3.8,3.8v2.8v8c0,0.7,0.6,1.3,1.3,1.3c0.7,0,1.3-0.6,1.3-1.3V15
			c0.4,0.1,0.8,0.2,1.3,0.2h4.2c3.7,0,6.7-3,6.7-6.7C131,6.5,129.2,4.8,127.1,4.8z M124.3,12.7h-4.2c-0.7,0-1.3-0.6-1.3-1.3V8.6
			c0-0.7,0.6-1.3,1.3-1.3h7c0.7,0,1.3,0.6,1.3,1.3C128.4,10.9,126.6,12.7,124.3,12.7z"/>
		<path class="st0" d="M176.6,10.2h-4.2c-0.4,0-0.9,0.1-1.3,0.2V6.1c0-0.7-0.6-1.3-1.3-1.3c-0.7,0-1.3,0.6-1.3,1.3v8v2.8
			c0,2.1,1.7,3.8,3.8,3.8h7c2.1,0,3.8-1.7,3.8-3.8C183.3,13.2,180.3,10.2,176.6,10.2z M179.4,18.1h-7c-0.7,0-1.3-0.6-1.3-1.3V14
			c0-0.7,0.6-1.3,1.3-1.3h4.2c2.3,0,4.1,1.8,4.1,4.1C180.7,17.6,180.1,18.1,179.4,18.1z"/>
		<path class="st0" d="M161,4.8h-6.2c-2.1,0-3.8,1.7-3.8,3.8v8.3c0,2.1,1.7,3.8,3.8,3.8h6.2c2.5,0,4.6-2.1,4.6-4.6
			c0-1.3-0.5-2.5-1.4-3.3c0.9-0.8,1.4-2,1.4-3.3C165.6,6.9,163.6,4.8,161,4.8z M161,18.1h-6.2c-0.7,0-1.3-0.6-1.3-1.3v-2.9
			c0.1,0,0.3,0.1,0.4,0.1h7.1c1.1,0,2,0.9,2,2C163.1,17.2,162.1,18.1,161,18.1z M161,11.5h-7.1c-0.1,0-0.3,0-0.4,0.1v-3
			c0-0.7,0.6-1.3,1.3-1.3h6.2c1.1,0,2,0.9,2,2S162.1,11.5,161,11.5z"/>
	</g>
	<g>
		<path class="st0" d="M0.2,37.1v-7.6c0-0.3,0.2-0.5,0.5-0.5h5.4c0.3,0,0.5,0.2,0.5,0.5v7.6c0,0.3-0.2,0.5-0.5,0.5
			c-0.3,0-0.5-0.2-0.5-0.5v-7.3H1.2v7.3c0,0.3-0.2,0.5-0.5,0.5C0.4,37.7,0.2,37.4,0.2,37.1z"/>
		<path class="st0" d="M15.4,34.4c0,1.9-1.3,3.3-3.1,3.3c-1,0-1.8-0.4-2.3-1.1v2.9c0,0.3-0.2,0.5-0.5,0.5c-0.3,0-0.5-0.2-0.5-0.5
			v-7.9c0-0.3,0.2-0.5,0.5-0.5c0.3,0,0.5,0.2,0.5,0.5v0.6c0.5-0.6,1.3-1.1,2.3-1.1C14,31.1,15.4,32.5,15.4,34.4z M14.4,34.4
			c0-1.4-0.9-2.4-2.2-2.4c-1.3,0-2.2,1-2.2,2.4c0,1.4,0.9,2.4,2.2,2.4C13.4,36.8,14.4,35.7,14.4,34.4z"/>
		<path class="st0" d="M23.3,34.4c0,1.8-1.5,3.3-3.3,3.3c-1.8,0-3.3-1.5-3.3-3.3c0-1.9,1.5-3.3,3.3-3.3
			C21.8,31.1,23.3,32.5,23.3,34.4z M17.7,34.4c0,1.3,1,2.4,2.3,2.4c1.3,0,2.3-1,2.3-2.4c0-1.4-1-2.4-2.3-2.4
			C18.7,32,17.7,33,17.7,34.4z"/>
		<path class="st0" d="M25.1,37.2v-5.4c0-0.3,0.2-0.5,0.5-0.5h3.5c0.3,0,0.5,0.2,0.5,0.4c0,0.3-0.2,0.5-0.5,0.5h-3v5
			c0,0.3-0.2,0.5-0.5,0.5C25.3,37.7,25.1,37.4,25.1,37.2z"/>
		<path class="st0" d="M37.3,34.4c0,1.9-1.3,3.3-3.1,3.3c-1,0-1.8-0.4-2.3-1.1v2.9c0,0.3-0.2,0.5-0.5,0.5c-0.3,0-0.5-0.2-0.5-0.5
			v-7.9c0-0.3,0.2-0.5,0.5-0.5c0.3,0,0.5,0.2,0.5,0.5v0.6c0.5-0.6,1.3-1.1,2.3-1.1C35.9,31.1,37.3,32.5,37.3,34.4z M36.2,34.4
			c0-1.4-0.9-2.4-2.2-2.4c-1.3,0-2.2,1-2.2,2.4c0,1.4,0.9,2.4,2.2,2.4C35.3,36.8,36.2,35.7,36.2,34.4z"/>
		<path class="st0" d="M43.7,33.6v3.5c0,0.3-0.2,0.5-0.5,0.5c-0.3,0-0.5-0.2-0.5-0.5v-0.4c-0.5,0.6-1.2,0.9-2.1,0.9
			c-1.3,0-2.2-0.7-2.2-1.8s0.9-1.8,2.3-1.8h2v-0.5c0-1-0.6-1.6-1.5-1.6c-0.6,0-1.1,0.2-1.6,0.7c-0.1,0.1-0.3,0.2-0.4,0.2
			c-0.2,0-0.5-0.2-0.5-0.4c0-0.1,0.1-0.3,0.2-0.4c0.5-0.6,1.4-1,2.3-1C42.8,31.1,43.7,32,43.7,33.6z M42.7,35.1V35h-1.9
			c-0.9,0-1.4,0.3-1.4,0.9s0.5,1,1.3,1C41.9,36.8,42.7,36.1,42.7,35.1z"/>
		<path class="st0" d="M45.9,37.2v-5.6c0-0.3,0.2-0.5,0.5-0.5c0.2,0,0.3,0.1,0.4,0.2l2.4,3.3l2.4-3.3c0.1-0.1,0.2-0.2,0.4-0.2
			c0.3,0,0.5,0.2,0.5,0.5v5.6c0,0.3-0.2,0.5-0.5,0.5c-0.3,0-0.5-0.2-0.5-0.5v-4.1l-2,2.5c-0.1,0.1-0.2,0.2-0.4,0.2s-0.3-0.1-0.4-0.2
			l-2-2.5v4.1c0,0.3-0.2,0.5-0.5,0.5C46.1,37.7,45.9,37.4,45.9,37.2z"/>
		<path class="st0" d="M55,37.2v-5.6c0-0.3,0.2-0.5,0.5-0.5c0.2,0,0.3,0.1,0.4,0.2l2.4,3.3l2.4-3.3c0.1-0.1,0.2-0.2,0.4-0.2
			c0.3,0,0.5,0.2,0.5,0.5v5.6c0,0.3-0.2,0.5-0.5,0.5c-0.3,0-0.5-0.2-0.5-0.5v-4.1l-2,2.5c-0.1,0.1-0.2,0.2-0.4,0.2s-0.3-0.1-0.4-0.2
			l-2-2.5v4.1c0,0.3-0.2,0.5-0.5,0.5C55.2,37.7,55,37.4,55,37.2z"/>
		<path class="st0" d="M68.6,33.6v3.5c0,0.3-0.2,0.5-0.5,0.5c-0.3,0-0.5-0.2-0.5-0.5v-0.4c-0.5,0.6-1.2,0.9-2.1,0.9
			c-1.3,0-2.2-0.7-2.2-1.8s0.9-1.8,2.3-1.8h2v-0.5c0-1-0.6-1.6-1.5-1.6c-0.6,0-1.1,0.2-1.6,0.7c-0.1,0.1-0.3,0.2-0.4,0.2
			c-0.2,0-0.5-0.2-0.5-0.4c0-0.1,0.1-0.3,0.2-0.4c0.5-0.6,1.4-1,2.3-1C67.7,31.1,68.6,32,68.6,33.6z M67.7,35.1V35h-1.9
			c-0.9,0-1.4,0.3-1.4,0.9s0.5,1,1.3,1C66.8,36.8,67.7,36.1,67.7,35.1z"/>
		<path class="st0" d="M80.8,37.2V39c0,0.3-0.2,0.5-0.5,0.5c-0.3,0-0.5-0.2-0.5-0.5v-1.5h-5V39c0,0.3-0.2,0.5-0.5,0.5
			c-0.3,0-0.5-0.2-0.5-0.5v-1.8c0-0.3,0.2-0.5,0.5-0.5h0.1c0.9-0.9,1.2-2.3,1.2-4.9v0c0-0.3,0.2-0.5,0.5-0.5h3
			c0.3,0,0.5,0.2,0.5,0.5v4.9h0.5C80.6,36.7,80.8,36.9,80.8,37.2z M75.6,36.7h3.1v-4.5h-2.1C76.7,34.5,76.4,35.8,75.6,36.7z"/>
		<path class="st0" d="M88.4,34.4c0,1.8-1.5,3.3-3.3,3.3c-1.8,0-3.3-1.5-3.3-3.3c0-1.9,1.5-3.3,3.3-3.3C87,31.1,88.4,32.5,88.4,34.4
			z M82.9,34.4c0,1.3,1,2.4,2.3,2.4c1.3,0,2.3-1,2.3-2.4c0-1.4-1-2.4-2.3-2.4C83.8,32,82.9,33,82.9,34.4z"/>
		<path class="st0" d="M89.7,34.4c0-1.8,1.5-3.3,3.3-3.3c1.1,0,2,0.5,2.6,1.3c0.1,0.1,0.1,0.2,0.1,0.3c0,0.2-0.2,0.5-0.5,0.5
			c-0.1,0-0.2,0-0.4-0.2c-0.4-0.5-1-0.9-1.8-0.9c-1.3,0-2.3,1-2.3,2.4c0,1.4,1,2.4,2.3,2.4c0.8,0,1.4-0.4,1.8-0.9
			c0.1-0.1,0.2-0.2,0.4-0.2c0.3,0,0.5,0.2,0.5,0.5c0,0.1,0,0.2-0.1,0.3c-0.5,0.8-1.4,1.3-2.6,1.3C91.2,37.7,89.7,36.2,89.7,34.4z"/>
		<path class="st0" d="M98.7,37.2v-5h-1.8c-0.3,0-0.5-0.2-0.5-0.5c0-0.2,0.2-0.4,0.5-0.4h4.7c0.3,0,0.5,0.2,0.5,0.4
			c0,0.3-0.2,0.5-0.5,0.5h-1.8v5c0,0.3-0.2,0.5-0.5,0.5S98.7,37.4,98.7,37.2z"/>
		<path class="st0" d="M108.9,31.6c0,0.1,0,0.2,0,0.2l-3,6.4c-0.6,1.2-1.3,1.8-2.3,1.8c-0.2,0-0.3,0-0.5,0c-0.2,0-0.4-0.2-0.4-0.4
			c0-0.2,0.2-0.4,0.5-0.4c0.1,0,0.3,0,0.4,0c0.6,0,1.1-0.3,1.4-1.1l0.3-0.7l-2.5-5.5c0-0.1-0.1-0.1-0.1-0.2c0-0.3,0.2-0.5,0.5-0.5
			c0.2,0,0.4,0.1,0.5,0.3l2.1,4.7l2.2-4.7c0.1-0.2,0.3-0.3,0.5-0.3C108.7,31.1,108.9,31.3,108.9,31.6z"/>
		<path class="st0" d="M110.5,37.2v-5.5c0-0.3,0.2-0.5,0.5-0.5h4.2c0.3,0,0.5,0.2,0.5,0.5v5.5c0,0.3-0.2,0.5-0.5,0.5
			c-0.3,0-0.5-0.2-0.5-0.5v-5.1h-3.1v5.1c0,0.3-0.2,0.5-0.5,0.5S110.5,37.5,110.5,37.2z"/>
		<path class="st0" d="M123.2,31.6v5.6c0,0.3-0.2,0.5-0.5,0.5c-0.3,0-0.5-0.2-0.5-0.5v-2.6h-3.2v2.6c0,0.3-0.2,0.5-0.5,0.5
			c-0.3,0-0.5-0.2-0.5-0.5v-5.6c0-0.3,0.2-0.5,0.5-0.5c0.3,0,0.5,0.2,0.5,0.5v2.2h3.2v-2.2c0-0.3,0.2-0.5,0.5-0.5
			C122.9,31.1,123.2,31.3,123.2,31.6z"/>
		<path class="st0" d="M131.6,34.4c0,1.8-1.5,3.3-3.3,3.3c-1.8,0-3.3-1.5-3.3-3.3c0-1.9,1.5-3.3,3.3-3.3
			C130.1,31.1,131.6,32.5,131.6,34.4z M126,34.4c0,1.3,1,2.4,2.3,2.4c1.3,0,2.3-1,2.3-2.4c0-1.4-1-2.4-2.3-2.4
			C127,32,126,33,126,34.4z"/>
		<path class="st0" d="M133.4,37.2v-5.4c0-0.3,0.2-0.5,0.5-0.5h3.5c0.3,0,0.5,0.2,0.5,0.4c0,0.3-0.2,0.5-0.5,0.5h-3v5
			c0,0.3-0.2,0.5-0.5,0.5C133.6,37.7,133.4,37.4,133.4,37.2z"/>
		<path class="st0" d="M145.1,34.4c0,1.8-1.5,3.3-3.3,3.3c-1.8,0-3.3-1.5-3.3-3.3c0-1.9,1.5-3.3,3.3-3.3
			C143.6,31.1,145.1,32.5,145.1,34.4z M139.5,34.4c0,1.3,1,2.4,2.3,2.4c1.3,0,2.3-1,2.3-2.4c0-1.4-1-2.4-2.3-2.4
			C140.5,32,139.5,33,139.5,34.4z"/>
		<path class="st0" d="M155.4,31.7v5.4c0,0.3-0.2,0.5-0.5,0.5c-0.3,0-0.5-0.2-0.5-0.5v-5h-2.2v0.6c0,2.6-0.6,4.2-1.9,4.7
			c-0.2,0.1-0.3,0.1-0.4,0.1c-0.3,0-0.5-0.2-0.5-0.5c0-0.2,0.1-0.4,0.4-0.4c1-0.4,1.5-1.7,1.5-4.5v-0.5c0-0.3,0.2-0.5,0.5-0.5h3.2
			C155.2,31.2,155.4,31.5,155.4,31.7z"/>
		<path class="st0" d="M163.3,34L163.3,34c0,0.5-0.2,0.7-0.6,0.7h-4.5c0.1,1.2,1,2.1,2.3,2.1c0.6,0,1.2-0.2,1.6-0.6
			c0.1-0.1,0.2-0.1,0.3-0.1c0.2,0,0.4,0.2,0.4,0.4c0,0.2-0.1,0.3-0.2,0.5c-0.6,0.5-1.4,0.8-2.2,0.8c-1.9,0-3.3-1.4-3.3-3.3
			c0-1.9,1.4-3.3,3.2-3.3C162.1,31.1,163.3,32.3,163.3,34z M158.3,33.8h4c0-1.1-0.8-1.8-1.9-1.8C159.3,32,158.5,32.7,158.3,33.8z"/>
		<path class="st0" d="M169.9,31.6v5.6c0,0.3-0.2,0.5-0.5,0.5c-0.3,0-0.5-0.2-0.5-0.5v-2c-0.5,0.2-1,0.3-1.5,0.3
			c-1.7,0-2.8-1.1-2.8-2.8v-1c0-0.3,0.2-0.5,0.5-0.5c0.3,0,0.5,0.2,0.5,0.5v0.9c0,1.3,0.6,1.9,1.9,1.9c0.5,0,1-0.1,1.4-0.3v-2.6
			c0-0.3,0.2-0.5,0.5-0.5C169.6,31.1,169.9,31.3,169.9,31.6z"/>
		<path class="st0" d="M177.8,34L177.8,34c0,0.5-0.2,0.7-0.6,0.7h-4.5c0.1,1.2,1,2.1,2.3,2.1c0.6,0,1.2-0.2,1.6-0.6
			c0.1-0.1,0.2-0.1,0.3-0.1c0.2,0,0.4,0.2,0.4,0.4c0,0.2-0.1,0.3-0.2,0.5c-0.6,0.5-1.4,0.8-2.2,0.8c-1.9,0-3.3-1.4-3.3-3.3
			c0-1.9,1.4-3.3,3.2-3.3C176.6,31.1,177.8,32.3,177.8,34z M172.7,33.8h4c0-1.1-0.8-1.8-1.9-1.8C173.8,32,173,32.7,172.7,33.8z"/>
		<path class="st0" d="M184.8,31.6v5.6c0,0.3-0.2,0.5-0.5,0.5c-0.3,0-0.5-0.2-0.5-0.5v-2.6h-3.2v2.6c0,0.3-0.2,0.5-0.5,0.5
			c-0.3,0-0.5-0.2-0.5-0.5v-5.6c0-0.3,0.2-0.5,0.5-0.5c0.3,0,0.5,0.2,0.5,0.5v2.2h3.2v-2.2c0-0.3,0.2-0.5,0.5-0.5
			C184.6,31.1,184.8,31.3,184.8,31.6z"/>
		<path class="st0" d="M192.5,31.6v5.6c0,0.3-0.2,0.5-0.5,0.5c-0.3,0-0.5-0.2-0.5-0.5v-4.2l-3.4,4.5c-0.2,0.2-0.3,0.3-0.5,0.3
			c-0.3,0-0.5-0.2-0.5-0.5v-5.6c0-0.3,0.2-0.5,0.5-0.5c0.3,0,0.5,0.2,0.5,0.5v4.3l3.4-4.6c0.2-0.2,0.3-0.3,0.5-0.3
			C192.3,31.1,192.5,31.3,192.5,31.6z"/>
		<path class="st0" d="M199.8,31.7v5.4c0,0.3-0.2,0.5-0.5,0.5s-0.5-0.2-0.5-0.5v-1.7h-1.8c-0.1,0-0.2,0-0.2,0l-1.7,2
			c-0.1,0.1-0.2,0.2-0.4,0.2c-0.3,0-0.5-0.2-0.5-0.5c0-0.1,0.1-0.2,0.1-0.3l1.5-1.6c-0.8-0.3-1.2-1-1.2-1.9c0-1.3,1-2.2,2.4-2.2h2.3
			C199.6,31.2,199.8,31.5,199.8,31.7z M198.8,32.1h-1.7c-0.9,0-1.5,0.5-1.5,1.2c0,0.8,0.6,1.3,1.5,1.3h1.7V32.1z"/>
	</g>
</g>
</symbol></svg>