<?xml version="1.0" encoding="utf-8"?>
<!-- Generator: Adobe Illustrator 22.1.0, SVG Export Plug-In . SVG Version: 6.00 Build 0)  -->
<svg version="1.1" id="Слой_1" xmlns="http://www.w3.org/2000/svg" xmlns:xlink="http://www.w3.org/1999/xlink" x="0px" y="0px"
	 viewBox="0 0 80 80" style="enable-background:new 0 0 80 80;" xml:space="preserve">
<style type="text/css">
	.st0{opacity:0.25;}
	.st1{fill:#16AFE0;}
</style>
<g class="st0">
	<path class="st1" d="M40,1c21.5,0,39,17.5,39,39S61.5,79,40,79S1,61.5,1,40S18.5,1,40,1 M40,0C17.9,0,0,17.9,0,40s17.9,40,40,40
		s40-17.9,40-40S62.1,0,40,0L40,0z"/>
</g>
<g>
	<g>
		<g>
			<path class="st1" d="M38.7,31.7c-0.4,0-0.6,0.3-0.6,0.6c0,0.4,0.3,0.6,0.6,0.6c0.4,0,0.6-0.3,0.6-0.6
				C39.4,32,39.1,31.7,38.7,31.7z"/>
		</g>
	</g>
	<g>
		<g>
			<path class="st1" d="M49.6,39.4c1.1,0,1.9-0.9,1.9-1.9v-1.3c0-1.1-0.9-1.9-1.9-1.9h-0.6v-0.6c0-2.4-1.8-4.3-4.2-4.5
				c-0.5-3.1-0.7-4-0.7-4.1c-0.2-0.9-1-1.5-1.9-1.5h-6.9c-0.9,0-1.6,0.6-1.9,1.5c0,0-0.2,0.9-0.7,4.1c-2.3,0.2-4.2,2.1-4.2,4.5v12.8
				c0,2.4,1.8,4.3,4.2,4.5l0.7,4c0,0,0,0,0,0c0.2,0.9,1,1.5,1.9,1.5h6.9c0.9,0,1.6-0.6,1.9-1.5c0,0,0,0,0,0l0.7-4
				c2.3-0.2,4.2-2.1,4.2-4.5v-0.6h0.6c1.1,0,1.9-0.9,1.9-1.9v-1.3c0-1.1-0.9-1.9-1.9-1.9h-0.6v-1.3H49.6z M48.9,35.5h0.6
				c0.4,0,0.6,0.3,0.6,0.6v1.3c0,0.4-0.3,0.6-0.6,0.6h-0.6V35.5z M34.6,25.4c0.1-0.3,0.3-0.5,0.6-0.5h6.9c0.3,0,0.5,0.2,0.6,0.5
				l0.7,3.8H34L34.6,25.4z M42.8,54.6c-0.1,0.3-0.3,0.5-0.6,0.5h-6.9c-0.3,0-0.5-0.2-0.6-0.5L34,50.9h9.5L42.8,54.6z M47.7,46.4
				c0,1.8-1.4,3.2-3.2,3.2H33c-1.8,0-3.2-1.4-3.2-3.2V33.6c0-1.8,1.4-3.2,3.2-3.2c0.6,0,10.8,0,11.5,0c1.8,0,3.2,1.4,3.2,3.2
				C47.7,35.5,47.7,44.3,47.7,46.4z M49.6,41.9c0.4,0,0.6,0.3,0.6,0.6v1.3c0,0.4-0.3,0.6-0.6,0.6h-0.6v-2.6H49.6z"/>
		</g>
	</g>
	<g>
		<g>
			<path class="st1" d="M44.5,31.7h-3.2c-0.4,0-0.6,0.3-0.6,0.6c0,0.4,0.3,0.6,0.6,0.6h3.2c0.4,0,0.6,0.3,0.6,0.6v5.8h-3.2
				c-0.3,0-0.5,0.2-0.6,0.4l-0.7,2l-0.7-2c-0.1-0.3-0.3-0.4-0.6-0.4h-0.8l-1.2-4.6c-0.1-0.3-0.3-0.5-0.6-0.5c-0.3,0-0.5,0.2-0.6,0.5
				L35,39.4h-2.7v-5.8c0-0.4,0.3-0.6,0.6-0.6h1.9c0.4,0,0.6-0.3,0.6-0.6c0-0.4-0.3-0.6-0.6-0.6H33c-1.1,0-1.9,0.9-1.9,1.9v12.8
				c0,1.1,0.9,1.9,1.9,1.9h11.5c1.1,0,1.9-0.9,1.9-1.9V33.6C46.4,32.6,45.5,31.7,44.5,31.7z M45.1,46.4c0,0.4-0.3,0.6-0.6,0.6H33
				c-0.4,0-0.6-0.3-0.6-0.6v-5.8h3.2c0.3,0,0.5-0.2,0.6-0.5l0.7-2.6l0.7,2.6c0.1,0.3,0.3,0.5,0.6,0.5h0.8L40,44
				c0.1,0.3,0.3,0.4,0.6,0.4c0.3,0,0.5-0.2,0.6-0.4l1.1-3.4h2.7V46.4z"/>
		</g>
	</g>
</g>
</svg>
