<?xml version="1.0" encoding="utf-8"?>
<!-- Generator: Adobe Illustrator 22.1.0, SVG Export Plug-In . SVG Version: 6.00 Build 0)  -->
<svg version="1.1" id="Слой_1" xmlns="http://www.w3.org/2000/svg" xmlns:xlink="http://www.w3.org/1999/xlink" x="0px" y="0px"
	 viewBox="0 0 80 80" style="enable-background:new 0 0 80 80;" xml:space="preserve">
<style type="text/css">
	.st0{opacity:0.25;}
	.st1{fill:#16AFE0;}
</style>
<g class="st0">
	<path class="st1" d="M40,1c21.5,0,39,17.5,39,39S61.5,79,40,79S1,61.5,1,40S18.5,1,40,1 M40,0C17.9,0,0,17.9,0,40s17.9,40,40,40
		s40-17.9,40-40S62.1,0,40,0L40,0z"/>
</g>
<g>
	<g>
		<g>
			<rect x="34.7" y="26.7" class="st1" width="10.7" height="1.1"/>
		</g>
	</g>
	<g>
		<g>
			<path class="st1" d="M50.4,44c0-1-0.8-1.9-1.9-1.9h-1.1v-7.5h-1.1v7.5h-1.3c-1,0-1.9,0.8-1.9,1.9c0,0.5,0.2,1,0.6,1.3
				c-0.3,0.3-0.6,0.8-0.6,1.3c0,0.4,0.1,0.7,0.3,1c-0.6,0.3-1.1,0.9-1.1,1.7c0,0.3,0.1,0.6,0.2,0.8h-4.2c0-1.6-0.8-3.1-2.1-3.9
				c1.2-0.5,2.1-1.6,2.1-3c0-0.3-0.2-0.5-0.5-0.5h-4.3v-5.3h-1.1v5.3c-0.9,0-1.6,0.7-1.6,1.6V56H32V44.3c0-0.3,0.2-0.5,0.5-0.5h4.7
				c-0.2,0.9-1.1,1.6-2.1,1.6h-1.6c-0.3,0-0.5,0.2-0.5,0.5c0,0.3,0.2,0.5,0.5,0.5c2.1,0,3.7,1.7,3.7,3.7v0.5c0,0.3,0.2,0.5,0.5,0.5
				H41c-0.1,0.2-0.2,0.5-0.2,0.8c0,1,0.8,1.9,1.9,1.9V56h1.1v-2.1h2.1h0.3c1,0,1.9-0.8,1.9-1.9c0-0.3-0.1-0.6-0.2-0.8
				c1,0,1.8-0.9,1.8-1.9c0-0.4-0.1-0.7-0.3-1c0.6-0.3,1.1-0.9,1.1-1.7c0-0.5-0.2-1-0.6-1.3C50.2,45,50.4,44.5,50.4,44z M46.1,52.8
				h-0.3h-2.7h-0.5c-0.4,0-0.8-0.4-0.8-0.8s0.4-0.8,0.8-0.8h1.6h1.9c0.4,0,0.8,0.4,0.8,0.8S46.6,52.8,46.1,52.8z M47.7,50.1h-1.6
				h-1.9c-0.4,0-0.8-0.4-0.8-0.8c0-0.4,0.4-0.8,0.8-0.8h0.8h2.7c0.4,0,0.8,0.4,0.8,0.8C48.5,49.8,48.2,50.1,47.7,50.1z M48.5,47.5
				h-0.8h-2.7c-0.4,0-0.8-0.4-0.8-0.8c0-0.4,0.4-0.8,0.8-0.8h3.5c0.4,0,0.8,0.4,0.8,0.8C49.3,47.1,49,47.5,48.5,47.5z M48.5,44.8
				h-3.5c-0.4,0-0.8-0.4-0.8-0.8s0.4-0.8,0.8-0.8h3.5c0.4,0,0.8,0.4,0.8,0.8S49,44.8,48.5,44.8z"/>
		</g>
	</g>
	<g>
		<g>
			<path class="st1" d="M32,30.8c0-0.2-0.1-0.3-0.2-0.4L31.2,30c-0.1-0.7-0.7-1.2-1.4-1.2c-0.8,0-1.4,0.6-1.5,1.4
				c-0.4-0.1-0.8-0.2-1.2-0.5L27,29.6c-0.2-0.1-0.4-0.1-0.5,0c-0.2,0.1-0.3,0.3-0.3,0.5v0.4c0,0.6,0.2,1.3,0.6,1.8l-0.4,0.4
				c-0.2,0.2-0.2,0.4-0.1,0.6c0.1,0.2,0.3,0.3,0.5,0.3h2.6c1,0,1.9-0.8,2-1.8l0.6-0.6C32,31.1,32,30.9,32,30.8z M30.3,31.2
				c-0.1,0.1-0.2,0.2-0.2,0.4c0,0.5-0.4,1-0.9,1h-1.4c0.1-0.2,0-0.4-0.1-0.6c-0.2-0.3-0.4-0.6-0.5-0.9c0.5,0.2,1.1,0.3,1.6,0.3
				c0.3,0,0.5-0.2,0.5-0.5v-0.6c0-0.2,0.2-0.4,0.4-0.4c0.2,0,0.4,0.2,0.4,0.4c0,0.2,0.1,0.3,0.2,0.4l0.3,0.2L30.3,31.2z"/>
		</g>
	</g>
	<g>
		<g>
			<path class="st1" d="M41.6,33.1V32H40c-0.3,0-0.5,0.2-0.5,0.5v1.6h-1.1v1.1h1.1v2.1h1.1v-2.1h1.1v-1.1h-1.1v-1.1H41.6z"/>
		</g>
	</g>
	<g>
		<g>
			<path class="st1" d="M43.2,29.9h-6.4c-0.9,0-1.6,0.7-1.6,1.6v6.4c0,0.9,0.7,1.6,1.6,1.6h6.4c0.9,0,1.6-0.7,1.6-1.6v-6.4
				C44.8,30.6,44.1,29.9,43.2,29.9z M43.7,37.9c0,0.3-0.2,0.5-0.5,0.5h-6.4c-0.3,0-0.5-0.2-0.5-0.5v-6.4c0-0.3,0.2-0.5,0.5-0.5h6.4
				c0.3,0,0.5,0.2,0.5,0.5V37.9z"/>
		</g>
	</g>
	<g>
		<g>
			<path class="st1" d="M32,26.7h-6.4c-0.9,0-1.6,0.7-1.6,1.6v6.4c0,0.9,0.7,1.6,1.6,1.6H32c0.9,0,1.6-0.7,1.6-1.6v-6.4
				C33.6,27.4,32.9,26.7,32,26.7z M32.5,34.7c0,0.3-0.2,0.5-0.5,0.5h-6.4c-0.3,0-0.5-0.2-0.5-0.5v-6.4c0-0.3,0.2-0.5,0.5-0.5H32
				c0.3,0,0.5,0.2,0.5,0.5V34.7z"/>
		</g>
	</g>
	<g>
		<g>
			<path class="st1" d="M54.4,24H48c-0.9,0-1.6,0.7-1.6,1.6V32c0,0.9,0.7,1.6,1.6,1.6h6.4c0.9,0,1.6-0.7,1.6-1.6v-6.4
				C56,24.7,55.3,24,54.4,24z M54.9,32c0,0.3-0.2,0.5-0.5,0.5H48c-0.3,0-0.5-0.2-0.5-0.5v-2.7h1.1c0.2,1.2,1.3,2.1,2.6,2.1
				s2.4-0.9,2.6-2.1h1.1V32z M49.6,28.8c0-0.9,0.7-1.6,1.6-1.6s1.6,0.7,1.6,1.6c0,0.9-0.7,1.6-1.6,1.6S49.6,29.7,49.6,28.8z
				 M54.9,28.3h-1.1c-0.2-1.2-1.3-2.1-2.6-2.1s-2.4,0.9-2.6,2.1h-1.1v-2.7c0-0.3,0.2-0.5,0.5-0.5h6.4c0.3,0,0.5,0.2,0.5,0.5V28.3z"
				/>
		</g>
	</g>
	<g>
		<g>
			<rect x="39.5" y="45.9" class="st1" width="1.1" height="1.1"/>
		</g>
	</g>
</g>
</svg>
